<?xml version="1.0" encoding="utf-8"?>
<!-- Generator: Adobe Illustrator 23.0.3, SVG Export Plug-In . SVG Version: 6.00 Build 0)  -->
<svg version="1.1" id="Layer_1" xmlns="http://www.w3.org/2000/svg" xmlns:xlink="http://www.w3.org/1999/xlink" x="0px" y="0px"
	 viewBox="0 0 512 512" style="enable-background:new 0 0 512 512;" xml:space="preserve">
<style type="text/css">
	.st0{fill:none;stroke:#231F20;stroke-width:15;stroke-miterlimit:10;}
	.st1{enable-background:new    ;}
	.st2{fill:#825400;}
	.st3{fill:#B47500;}
	.st4{fill:#DF9000;}
	.st5{clip-path:url(#SVGID_2_);enable-background:new    ;}
	.st6{fill:#996300;}
	.st7{fill:#946000;}
	.st8{fill:#8F5C00;}
	.st9{fill:#8A5900;}
	.st10{fill:#855600;}
	.st11{clip-path:url(#SVGID_4_);enable-background:new    ;}
	.st12{clip-path:url(#SVGID_6_);enable-background:new    ;}
	.st13{fill:#A86D00;}
	.st14{fill:#A36A00;}
	.st15{fill:#9E6600;}
	.st16{clip-path:url(#SVGID_8_);enable-background:new    ;}
	.st17{clip-path:url(#SVGID_10_);enable-background:new    ;}
	.st18{clip-path:url(#SVGID_12_);enable-background:new    ;}
	.st19{clip-path:url(#SVGID_14_);enable-background:new    ;}
	.st20{clip-path:url(#SVGID_16_);enable-background:new    ;}
	.st21{clip-path:url(#SVGID_18_);enable-background:new    ;}
	.st22{clip-path:url(#SVGID_20_);enable-background:new    ;}
	.st23{clip-path:url(#SVGID_22_);enable-background:new    ;}
	.st24{fill:#161314;}
	.st25{fill:#161414;}
	.st26{fill:#171415;}
	.st27{fill:#151313;}
	.st28{fill:#141213;}
	.st29{fill:#141112;}
	.st30{fill:#131111;}
	.st31{fill:#121011;}
	.st32{clip-path:url(#SVGID_24_);enable-background:new    ;}
	.st33{fill:#191617;}
	.st34{clip-path:url(#SVGID_26_);enable-background:new    ;}
	.st35{fill:#121010;}
	.st36{fill:#1F1B1C;}
	.st37{clip-path:url(#SVGID_28_);enable-background:new    ;}
	.st38{clip-path:url(#SVGID_30_);enable-background:new    ;}
	.st39{clip-path:url(#SVGID_32_);enable-background:new    ;}
	.st40{clip-path:url(#SVGID_34_);enable-background:new    ;}
	.st41{clip-path:url(#SVGID_36_);enable-background:new    ;}
	.st42{fill:#905D00;}
	.st43{clip-path:url(#SVGID_38_);enable-background:new    ;}
	.st44{clip-path:url(#SVGID_40_);enable-background:new    ;}
	.st45{clip-path:url(#SVGID_42_);enable-background:new    ;}
	.st46{clip-path:url(#SVGID_44_);enable-background:new    ;}
	.st47{clip-path:url(#SVGID_46_);enable-background:new    ;}
	.st48{clip-path:url(#SVGID_48_);enable-background:new    ;}
	.st49{clip-path:url(#SVGID_50_);enable-background:new    ;}
	.st50{clip-path:url(#SVGID_52_);enable-background:new    ;}
	.st51{clip-path:url(#SVGID_54_);enable-background:new    ;}
	.st52{clip-path:url(#SVGID_56_);enable-background:new    ;}
	.st53{clip-path:url(#SVGID_58_);enable-background:new    ;}
	.st54{clip-path:url(#SVGID_60_);enable-background:new    ;}
	.st55{clip-path:url(#SVGID_62_);enable-background:new    ;}
	.st56{clip-path:url(#SVGID_64_);enable-background:new    ;}
	.st57{clip-path:url(#SVGID_66_);enable-background:new    ;}
	.st58{clip-path:url(#SVGID_68_);enable-background:new    ;}
	.st59{clip-path:url(#SVGID_70_);enable-background:new    ;}
	.st60{clip-path:url(#SVGID_72_);enable-background:new    ;}
	.st61{clip-path:url(#SVGID_74_);enable-background:new    ;}
	.st62{clip-path:url(#SVGID_76_);enable-background:new    ;}
	.st63{clip-path:url(#SVGID_78_);enable-background:new    ;}
	.st64{clip-path:url(#SVGID_80_);enable-background:new    ;}
	.st65{clip-path:url(#SVGID_82_);enable-background:new    ;}
	.st66{clip-path:url(#SVGID_84_);enable-background:new    ;}
	.st67{clip-path:url(#SVGID_86_);enable-background:new    ;}
	.st68{clip-path:url(#SVGID_88_);enable-background:new    ;}
	.st69{clip-path:url(#SVGID_90_);enable-background:new    ;}
	.st70{clip-path:url(#SVGID_92_);enable-background:new    ;}
	.st71{clip-path:url(#SVGID_94_);enable-background:new    ;}
	.st72{clip-path:url(#SVGID_96_);enable-background:new    ;}
	.st73{clip-path:url(#SVGID_98_);enable-background:new    ;}
	.st74{clip-path:url(#SVGID_100_);enable-background:new    ;}
	.st75{clip-path:url(#SVGID_102_);enable-background:new    ;}
	.st76{clip-path:url(#SVGID_104_);enable-background:new    ;}
	.st77{clip-path:url(#SVGID_106_);enable-background:new    ;}
	.st78{clip-path:url(#SVGID_108_);enable-background:new    ;}
	.st79{clip-path:url(#SVGID_110_);enable-background:new    ;}
	.st80{clip-path:url(#SVGID_112_);enable-background:new    ;}
	.st81{clip-path:url(#SVGID_114_);enable-background:new    ;}
	.st82{clip-path:url(#SVGID_116_);enable-background:new    ;}
	.st83{clip-path:url(#SVGID_118_);enable-background:new    ;}
	.st84{clip-path:url(#SVGID_120_);enable-background:new    ;}
	.st85{clip-path:url(#SVGID_122_);enable-background:new    ;}
	.st86{clip-path:url(#SVGID_124_);enable-background:new    ;}
	.st87{clip-path:url(#SVGID_126_);enable-background:new    ;}
	.st88{clip-path:url(#SVGID_128_);enable-background:new    ;}
	.st89{clip-path:url(#SVGID_130_);enable-background:new    ;}
	.st90{clip-path:url(#SVGID_132_);enable-background:new    ;}
	.st91{clip-path:url(#SVGID_134_);enable-background:new    ;}
	.st92{clip-path:url(#SVGID_136_);enable-background:new    ;}
	.st93{fill:#FFA500;}
	.st94{fill:#073344;}
	.st95{fill:#ECEEF1;}
</style>
<circle class="st0" cx="256" cy="256" r="204"/>
<g>
	<g>
		<g class="st1">
			<g class="st1">
				<defs>
					<path id="SVGID_21_" class="st1" d="M255.24,320.24l-22.79-12.4c3.21,1.74,7.26,2.27,12.17,1.58c7.11-1,12.4-4.19,15.88-9.57
						s5.24-12.16,5.26-20.32c0.01-8-1.79-13.86-5.41-17.6c-0.98-1.01-2.08-1.84-3.3-2.51l22.79,12.4c1.22,0.66,2.32,1.5,3.3,2.51
						c3.62,3.74,5.43,9.6,5.41,17.6c-0.02,8.16-1.77,14.93-5.26,20.32c-3.49,5.38-8.78,8.57-15.88,9.57
						C262.51,322.52,258.45,321.99,255.24,320.24z"/>
				</defs>
				<clipPath id="SVGID_2_">
					<use xlink:href="#SVGID_21_"  style="overflow:visible;"/>
				</clipPath>
				<g class="st5">
					<path class="st24" d="M255.24,320.24l-22.79-12.4c0.16,0.09,0.33,0.18,0.5,0.26l22.79,12.4
						C255.58,320.42,255.41,320.33,255.24,320.24"/>
					<path class="st25" d="M255.74,320.5l-22.79-12.4c0.88,0.43,1.81,0.78,2.81,1.03l22.79,12.4
						C257.56,321.28,256.62,320.93,255.74,320.5"/>
					<path class="st26" d="M258.55,321.54l-22.79-12.4c2.56,0.66,5.51,0.76,8.86,0.29c2.74-0.38,5.21-1.1,7.41-2.13l22.79,12.4
						c-2.2,1.04-4.67,1.75-7.41,2.13C264.06,322.3,261.11,322.2,258.55,321.54"/>
					<path class="st25" d="M274.82,319.7l-22.79-12.4c1.04-0.49,2.03-1.06,2.95-1.69l22.79,12.4
						C276.85,318.64,275.86,319.2,274.82,319.7"/>
					<path class="st24" d="M277.77,318l-22.79-12.4c0.7-0.48,1.36-1,1.99-1.57l22.79,12.4C279.13,317,278.46,317.52,277.77,318"/>
					<path class="st27" d="M279.75,316.43l-22.79-12.4c0.57-0.51,1.11-1.05,1.62-1.63l22.79,12.4
						C280.86,315.38,280.32,315.92,279.75,316.43"/>
					<path class="st28" d="M281.37,314.8l-22.79-12.4c0.52-0.58,1-1.2,1.46-1.86l22.79,12.4
						C282.37,313.6,281.89,314.22,281.37,314.8"/>
					<path class="st29" d="M282.83,312.94l-22.79-12.4c0.16-0.22,0.31-0.45,0.46-0.69c0.42-0.64,0.81-1.3,1.17-1.99l22.79,12.4
						c-0.37,0.68-0.76,1.34-1.17,1.99C283.14,312.49,282.99,312.72,282.83,312.94"/>
					<path class="st30" d="M284.47,310.27l-22.79-12.4c0.67-1.24,1.25-2.55,1.76-3.92l22.79,12.4
						C285.72,307.72,285.14,309.03,284.47,310.27"/>
					<path class="st31" d="M286.23,306.35l-22.79-12.4c1.54-4.19,2.32-9,2.33-14.41c0.01-8-1.79-13.86-5.41-17.6
						c-0.98-1.01-2.08-1.84-3.3-2.51l22.79,12.4c1.22,0.66,2.32,1.5,3.3,2.51c3.62,3.74,5.43,9.6,5.41,17.6
						C288.54,297.35,287.77,302.16,286.23,306.35"/>
				</g>
			</g>
			<g class="st1">
				<defs>
					<path id="SVGID_23_" class="st1" d="M280.43,226.71l22.79,12.4c-7.27-3.96-16.29-5.18-27.03-3.67
						c-6.35,0.89-12.25,2.86-17.7,5.91c-5.44,3.05-9.69,6.58-12.71,10.59l-22.79-12.4c3.03-4.01,7.27-7.55,12.71-10.59
						c5.45-3.05,11.35-5.02,17.7-5.91C264.14,221.53,273.15,222.75,280.43,226.71z"/>
				</defs>
				<clipPath id="SVGID_4_">
					<use xlink:href="#SVGID_23_"  style="overflow:visible;"/>
				</clipPath>
				<g class="st11">
					<path class="st28" d="M245.78,251.94l-22.79-12.4c0.48-0.63,0.99-1.26,1.52-1.86l22.79,12.4
						C246.76,250.69,246.25,251.31,245.78,251.94"/>
					<path class="st27" d="M247.3,250.08l-22.79-12.4c0.86-0.97,1.8-1.92,2.81-2.83l22.79,12.4
						C249.1,248.16,248.16,249.1,247.3,250.08"/>
					<path class="st24" d="M250.11,247.25l-22.79-12.4c1.28-1.15,2.68-2.25,4.2-3.3l22.79,12.4
						C252.79,245,251.39,246.1,250.11,247.25"/>
					<path class="st25" d="M254.31,243.95l-22.79-12.4c1.3-0.9,2.7-1.77,4.18-2.6c1.01-0.56,2.04-1.09,3.08-1.58l22.79,12.4
						c-1.04,0.49-2.07,1.02-3.08,1.58C257.01,242.18,255.61,243.04,254.31,243.95"/>
					<path class="st26" d="M261.56,239.76l-22.79-12.4c4.58-2.16,9.45-3.6,14.63-4.33c7.25-1.02,13.71-0.79,19.38,0.68l22.79,12.4
						c-5.67-1.47-12.13-1.7-19.38-0.68C271.02,236.16,266.14,237.6,261.56,239.76"/>
					<path class="st25" d="M295.57,236.11l-22.79-12.4c2.29,0.59,4.46,1.39,6.49,2.39l22.79,12.4
						C300.02,237.51,297.86,236.71,295.57,236.11"/>
					<path class="st24" d="M302.06,238.51l-22.79-12.4c0.39,0.19,0.78,0.39,1.16,0.6l22.79,12.4
						C302.84,238.9,302.45,238.7,302.06,238.51"/>
				</g>
			</g>
			<g>
				<polygon class="st33" points="208.71,312.46 185.91,300.06 223.79,294.74 246.58,307.14 				"/>
			</g>
			<g class="st1">
				<defs>
					<path id="SVGID_25_" class="st1" d="M230.74,351.94l-22.79-12.4c-5.85-3.18-10.57-7.5-14.15-12.94
						c-4.83-7.32-7.46-16.16-7.89-26.54l22.79,12.4c0.43,10.38,3.06,19.23,7.89,26.54C220.17,344.45,224.89,348.76,230.74,351.94z"
						/>
				</defs>
				<clipPath id="SVGID_6_">
					<use xlink:href="#SVGID_25_"  style="overflow:visible;"/>
				</clipPath>
				<g class="st12">
					<path class="st31" d="M230.74,351.94l-22.79-12.4c-5.85-3.18-10.57-7.5-14.15-12.94c-4.83-7.32-7.46-16.16-7.89-26.54
						l22.79,12.4c0.43,10.38,3.06,19.23,7.89,26.54C220.17,344.45,224.89,348.76,230.74,351.94"/>
				</g>
			</g>
			<g>
				<polygon class="st35" points="210.55,292.87 187.76,280.47 187.96,173.98 210.75,186.38 				"/>
			</g>
			<g>
				<polygon class="st33" points="210.75,186.38 187.96,173.98 293.87,159.1 316.66,171.5 				"/>
			</g>
			<g>
				<path class="st36" d="M316.66,171.5l-0.07,36.72l-70.76,9.94l-0.06,33.78c3.03-4.01,7.27-7.55,12.71-10.59
					c5.45-3.05,11.35-5.02,17.7-5.91c11.33-1.59,20.74-0.14,28.21,4.35c7.48,4.5,12.95,10.9,16.41,19.23
					c3.46,8.32,5.18,17.62,5.16,27.9c-0.04,19.1-5.05,34.94-15.05,47.51c-10,12.58-24.08,20.15-42.22,22.7
					c-12.1,1.7-22.59,0.93-31.51-2.31c-8.92-3.23-15.78-8.51-20.6-15.83c-4.83-7.32-7.46-16.16-7.89-26.54l37.87-5.32
					c0.9,4.93,3.07,8.83,6.55,11.68c3.47,2.86,8.23,3.86,14.28,3.01c7.11-1,12.4-4.19,15.88-9.57c3.49-5.38,5.24-12.16,5.26-20.32
					c0.01-8-1.79-13.86-5.41-17.6c-3.62-3.73-8.91-5.11-15.86-4.13c-5.14,0.72-9.37,2.67-12.7,5.82c-3.34,3.17-5.54,7.02-6.6,11.58
					l-37.42,5.26l0.2-106.48L316.66,171.5z"/>
			</g>
		</g>
	</g>
</g>
</svg>
