<?xml version="1.0" encoding="utf-8"?>
<!-- Generator: Adobe Illustrator 23.0.3, SVG Export Plug-In . SVG Version: 6.00 Build 0)  -->
<svg version="1.1" id="Layer_1" xmlns="http://www.w3.org/2000/svg" xmlns:xlink="http://www.w3.org/1999/xlink" x="0px" y="0px"
	 viewBox="0 0 512 512" style="enable-background:new 0 0 512 512;" xml:space="preserve">
<style type="text/css">
	.st0{fill:none;stroke:#231F20;stroke-width:15;stroke-miterlimit:10;}
	.st1{enable-background:new    ;}
	.st2{fill:#825400;}
	.st3{fill:#B47500;}
	.st4{fill:#DF9000;}
	.st5{clip-path:url(#SVGID_2_);enable-background:new    ;}
	.st6{fill:#996300;}
	.st7{fill:#946000;}
	.st8{fill:#8F5C00;}
	.st9{fill:#8A5900;}
	.st10{fill:#855600;}
	.st11{clip-path:url(#SVGID_4_);enable-background:new    ;}
	.st12{clip-path:url(#SVGID_6_);enable-background:new    ;}
	.st13{fill:#A86D00;}
	.st14{fill:#A36A00;}
	.st15{fill:#9E6600;}
	.st16{clip-path:url(#SVGID_8_);enable-background:new    ;}
	.st17{clip-path:url(#SVGID_10_);enable-background:new    ;}
	.st18{clip-path:url(#SVGID_12_);enable-background:new    ;}
	.st19{clip-path:url(#SVGID_14_);enable-background:new    ;}
	.st20{clip-path:url(#SVGID_16_);enable-background:new    ;}
	.st21{clip-path:url(#SVGID_18_);enable-background:new    ;}
	.st22{clip-path:url(#SVGID_20_);enable-background:new    ;}
	.st23{clip-path:url(#SVGID_22_);enable-background:new    ;}
	.st24{clip-path:url(#SVGID_24_);enable-background:new    ;}
	.st25{clip-path:url(#SVGID_26_);enable-background:new    ;}
	.st26{clip-path:url(#SVGID_28_);enable-background:new    ;}
	.st27{clip-path:url(#SVGID_30_);enable-background:new    ;}
	.st28{clip-path:url(#SVGID_32_);enable-background:new    ;}
	.st29{clip-path:url(#SVGID_34_);enable-background:new    ;}
	.st30{clip-path:url(#SVGID_36_);enable-background:new    ;}
	.st31{fill:#905D00;}
	.st32{clip-path:url(#SVGID_38_);enable-background:new    ;}
	.st33{clip-path:url(#SVGID_40_);enable-background:new    ;}
	.st34{clip-path:url(#SVGID_42_);enable-background:new    ;}
	.st35{clip-path:url(#SVGID_44_);enable-background:new    ;}
	.st36{clip-path:url(#SVGID_46_);enable-background:new    ;}
	.st37{clip-path:url(#SVGID_48_);enable-background:new    ;}
	.st38{clip-path:url(#SVGID_50_);enable-background:new    ;}
	.st39{clip-path:url(#SVGID_52_);enable-background:new    ;}
	.st40{clip-path:url(#SVGID_54_);enable-background:new    ;}
	.st41{clip-path:url(#SVGID_56_);enable-background:new    ;}
	.st42{clip-path:url(#SVGID_58_);enable-background:new    ;}
	.st43{clip-path:url(#SVGID_60_);enable-background:new    ;}
	.st44{clip-path:url(#SVGID_62_);enable-background:new    ;}
	.st45{clip-path:url(#SVGID_64_);enable-background:new    ;}
	.st46{fill:#121010;}
	.st47{fill:#191617;}
	.st48{fill:#1F1B1C;}
	.st49{clip-path:url(#SVGID_66_);enable-background:new    ;}
	.st50{fill:#161314;}
	.st51{fill:#161414;}
	.st52{fill:#171415;}
	.st53{fill:#151313;}
	.st54{fill:#141213;}
	.st55{fill:#141112;}
	.st56{fill:#131111;}
	.st57{fill:#121011;}
	.st58{clip-path:url(#SVGID_68_);enable-background:new    ;}
	.st59{clip-path:url(#SVGID_70_);enable-background:new    ;}
	.st60{clip-path:url(#SVGID_72_);enable-background:new    ;}
	.st61{clip-path:url(#SVGID_74_);enable-background:new    ;}
	.st62{clip-path:url(#SVGID_76_);enable-background:new    ;}
	.st63{clip-path:url(#SVGID_78_);enable-background:new    ;}
	.st64{clip-path:url(#SVGID_80_);enable-background:new    ;}
	.st65{clip-path:url(#SVGID_82_);enable-background:new    ;}
	.st66{clip-path:url(#SVGID_84_);enable-background:new    ;}
	.st67{clip-path:url(#SVGID_86_);enable-background:new    ;}
	.st68{clip-path:url(#SVGID_88_);enable-background:new    ;}
	.st69{clip-path:url(#SVGID_90_);enable-background:new    ;}
	.st70{clip-path:url(#SVGID_92_);enable-background:new    ;}
	.st71{clip-path:url(#SVGID_94_);enable-background:new    ;}
	.st72{clip-path:url(#SVGID_96_);enable-background:new    ;}
	.st73{clip-path:url(#SVGID_98_);enable-background:new    ;}
	.st74{clip-path:url(#SVGID_100_);enable-background:new    ;}
	.st75{clip-path:url(#SVGID_102_);enable-background:new    ;}
	.st76{clip-path:url(#SVGID_104_);enable-background:new    ;}
	.st77{clip-path:url(#SVGID_106_);enable-background:new    ;}
	.st78{clip-path:url(#SVGID_108_);enable-background:new    ;}
	.st79{clip-path:url(#SVGID_110_);enable-background:new    ;}
	.st80{clip-path:url(#SVGID_112_);enable-background:new    ;}
	.st81{clip-path:url(#SVGID_114_);enable-background:new    ;}
	.st82{clip-path:url(#SVGID_116_);enable-background:new    ;}
	.st83{clip-path:url(#SVGID_118_);enable-background:new    ;}
	.st84{clip-path:url(#SVGID_120_);enable-background:new    ;}
	.st85{clip-path:url(#SVGID_122_);enable-background:new    ;}
	.st86{clip-path:url(#SVGID_124_);enable-background:new    ;}
	.st87{clip-path:url(#SVGID_126_);enable-background:new    ;}
	.st88{clip-path:url(#SVGID_128_);enable-background:new    ;}
	.st89{clip-path:url(#SVGID_130_);enable-background:new    ;}
	.st90{clip-path:url(#SVGID_132_);enable-background:new    ;}
	.st91{clip-path:url(#SVGID_134_);enable-background:new    ;}
	.st92{clip-path:url(#SVGID_136_);enable-background:new    ;}
	.st93{clip-path:url(#SVGID_138_);enable-background:new    ;}
	.st94{clip-path:url(#SVGID_140_);enable-background:new    ;}
	.st95{clip-path:url(#SVGID_142_);enable-background:new    ;}
	.st96{fill:#FFA500;}
	.st97{fill:#073344;}
	.st98{fill:#ECEEF1;}
</style>
<circle class="st0" cx="256" cy="256" r="204"/>
<g>
	<g>
		<g class="st1">
			<g>
				<polygon class="st46" points="186.94,371.13 164.15,358.73 164.41,218.96 187.2,231.36 				"/>
			</g>
			<g>
				<polygon class="st46" points="164.75,234.51 141.96,222.11 142.03,183.2 164.82,195.6 				"/>
			</g>
			<g>
				<polygon class="st47" points="164.82,195.6 142.03,183.2 204.85,174.37 227.65,186.77 				"/>
			</g>
			<g>
				<polygon class="st48" points="227.65,186.77 227.31,365.46 186.94,371.13 187.2,231.36 164.75,234.51 164.82,195.6 				"/>
			</g>
		</g>
		<g class="st1">
			<g class="st1">
				<defs>
					<path id="SVGID_65_" class="st1" d="M304.78,311.22l-22.79-12.4c3.37,1.84,7.67,2.38,12.87,1.65
						c7.26-1.02,12.74-4.03,16.45-9.05c3.72-5.01,6.18-11.22,7.41-18.66l22.79,12.4c-1.23,7.43-3.69,13.65-7.41,18.66
						c-3.71,5.02-9.19,8.03-16.45,9.05C312.44,313.61,308.15,313.06,304.78,311.22z"/>
				</defs>
				<clipPath id="SVGID_2_">
					<use xlink:href="#SVGID_65_"  style="overflow:visible;"/>
				</clipPath>
				<g class="st5">
					<path class="st50" d="M304.78,311.22l-22.79-12.4c0.17,0.09,0.35,0.18,0.52,0.27l22.79,12.4
						C305.13,311.41,304.95,311.32,304.78,311.22"/>
					<path class="st51" d="M305.3,311.49l-22.79-12.4c0.92,0.45,1.9,0.81,2.94,1.08l22.79,12.4
						C307.2,312.3,306.22,311.94,305.3,311.49"/>
					<path class="st52" d="M308.25,312.58l-22.79-12.4c2.71,0.7,5.84,0.8,9.4,0.3c3.07-0.43,5.83-1.22,8.27-2.37l22.79,12.4
						c-2.44,1.15-5.19,1.94-8.27,2.37C314.09,313.37,310.95,313.28,308.25,312.58"/>
					<path class="st51" d="M325.92,310.51l-22.79-12.4c1.13-0.53,2.2-1.14,3.19-1.83l22.79,12.4
						C328.12,309.36,327.05,309.97,325.92,310.51"/>
					<path class="st50" d="M329.11,308.67l-22.79-12.4c0.74-0.51,1.44-1.07,2.11-1.67l22.79,12.4
						C330.55,307.61,329.85,308.16,329.11,308.67"/>
					<path class="st53" d="M331.22,307.01l-22.79-12.4c0.6-0.54,1.16-1.11,1.7-1.71l22.79,12.4
						C332.38,305.9,331.81,306.47,331.22,307.01"/>
					<path class="st54" d="M332.91,305.3l-22.79-12.4c0.41-0.47,0.81-0.96,1.19-1.47c0.18-0.24,0.36-0.49,0.53-0.74l22.79,12.4
						c-0.17,0.25-0.35,0.49-0.53,0.74C333.72,304.34,333.33,304.83,332.91,305.3"/>
					<path class="st55" d="M334.63,303.09l-22.79-12.4c0.79-1.13,1.53-2.32,2.2-3.57l22.79,12.4
						C336.16,300.77,335.42,301.96,334.63,303.09"/>
					<path class="st56" d="M336.83,299.52l-22.79-12.4c0.87-1.61,1.63-3.32,2.3-5.13l22.79,12.4
						C338.46,296.2,337.69,297.91,336.83,299.52"/>
					<path class="st57" d="M339.13,294.4L316.33,282c1.04-2.83,1.84-5.91,2.39-9.22l22.79,12.4
						C340.96,288.49,340.17,291.56,339.13,294.4"/>
				</g>
			</g>
			<g class="st1">
				<defs>
					<path id="SVGID_67_" class="st1" d="M308.41,198.88l22.79,12.4c3.24,1.76,5.66,4.67,7.25,8.73c3.31,8.43,4.95,20.88,4.92,37.37
						c-0.02,11.09-0.64,20.36-1.86,27.79l-22.79-12.4c1.22-7.43,1.84-16.7,1.86-27.79c0.03-16.49-1.61-28.94-4.92-37.37
						C314.07,203.56,311.65,200.65,308.41,198.88z"/>
				</defs>
				<clipPath id="SVGID_4_">
					<use xlink:href="#SVGID_67_"  style="overflow:visible;"/>
				</clipPath>
				<g class="st11">
					<path class="st57" d="M341.51,285.17l-22.79-12.4c1.22-7.43,1.84-16.7,1.86-27.79c0.03-16.49-1.61-28.94-4.92-37.37
						c-1.59-4.06-4.01-6.97-7.25-8.73l22.79,12.4c3.24,1.76,5.66,4.67,7.25,8.73c3.31,8.43,4.95,20.88,4.92,37.37
						C343.35,268.47,342.73,277.74,341.51,285.17"/>
				</g>
			</g>
			<g class="st1">
				<defs>
					<path id="SVGID_69_" class="st1" d="M282.97,347.52l-22.79-12.4c-5.54-3.02-10.21-7.31-13.99-12.88
						c-10.03-14.75-15.01-36.31-14.96-64.7c0.05-28.07,5.12-50.89,15.21-68.46c10.08-17.57,26.31-27.93,48.69-31.07
						c13.93-1.96,25.46-0.45,34.61,4.52l22.79,12.4c-9.14-4.97-20.68-6.48-34.61-4.52c-22.38,3.15-38.61,13.5-48.69,31.07
						c-10.09,17.57-15.15,40.39-15.21,68.46c-0.05,28.39,4.93,49.96,14.96,64.7C272.76,340.21,277.42,344.5,282.97,347.52z"/>
				</defs>
				<clipPath id="SVGID_6_">
					<use xlink:href="#SVGID_69_"  style="overflow:visible;"/>
				</clipPath>
				<g class="st12">
					<path class="st57" d="M282.97,347.52l-22.79-12.4c-5.54-3.02-10.21-7.31-13.99-12.88c-10.03-14.75-15.01-36.31-14.96-64.7
						c0.04-20.74,2.81-38.6,8.32-53.61l22.79,12.4c-5.51,15-8.29,32.87-8.32,53.61c-0.05,28.39,4.93,49.96,14.96,64.7
						C272.76,340.21,277.42,344.5,282.97,347.52"/>
					<path class="st56" d="M262.34,216.33l-22.79-12.4c1.65-4.48,3.54-8.71,5.67-12.68l22.79,12.4
						C265.88,207.62,263.99,211.85,262.34,216.33"/>
					<path class="st55" d="M268.01,203.65l-22.79-12.4c0.39-0.73,0.8-1.46,1.21-2.17c1.01-1.76,2.08-3.45,3.21-5.06l22.79,12.4
						c-1.13,1.61-2.2,3.3-3.21,5.06C268.81,202.19,268.41,202.92,268.01,203.65"/>
					<path class="st54" d="M272.43,196.42l-22.79-12.4c1.32-1.89,2.73-3.67,4.22-5.36l22.79,12.4
						C275.17,192.75,273.76,194.53,272.43,196.42"/>
					<path class="st53" d="M276.66,191.06l-22.79-12.4c1.48-1.68,3.05-3.26,4.7-4.74l22.79,12.4
						C279.7,187.8,278.14,189.38,276.66,191.06"/>
					<path class="st50" d="M281.35,186.31l-22.79-12.4c1.83-1.65,3.76-3.17,5.79-4.58l22.79,12.4
						C285.11,183.14,283.18,184.67,281.35,186.31"/>
					<path class="st51" d="M287.15,181.73l-22.79-12.4c2.71-1.88,5.61-3.54,8.69-4.99l22.79,12.4
						C292.76,178.2,289.86,179.86,287.15,181.73"/>
					<path class="st52" d="M295.84,176.75l-22.79-12.4c6.54-3.08,13.9-5.19,22.08-6.34c9.47-1.33,17.84-1.06,25.1,0.82l22.79,12.4
						c-7.26-1.88-15.63-2.15-25.1-0.82C309.73,171.56,302.37,173.67,295.84,176.75"/>
					<path class="st51" d="M343.02,171.22l-22.79-12.4c2.86,0.74,5.55,1.73,8.07,2.97l22.79,12.4
						C348.57,172.95,345.88,171.96,343.02,171.22"/>
					<path class="st50" d="M351.09,174.19l-22.79-12.4c0.48,0.24,0.96,0.49,1.43,0.74l22.79,12.4
						C352.05,174.67,351.57,174.43,351.09,174.19"/>
				</g>
			</g>
			<g>
				<path class="st48" d="M366.52,187.8c10.02,14.75,15.01,36.15,14.96,64.22c-0.05,28.39-5.12,51.37-15.21,68.94
					c-10.09,17.57-26.32,27.93-48.69,31.07c-22.38,3.15-38.58-2.65-48.6-17.4c-10.03-14.75-15.01-36.31-14.96-64.7
					c0.05-28.07,5.12-50.89,15.21-68.46c10.08-17.57,26.31-27.93,48.69-31.07C340.29,167.26,356.49,173.06,366.52,187.8z
					 M341.51,285.17c1.22-7.43,1.84-16.7,1.86-27.79c0.03-16.49-1.61-28.94-4.92-37.37c-3.31-8.43-10.18-11.91-20.61-10.44
					c-10.44,1.47-17.33,6.88-20.67,16.24c-3.34,9.36-5.03,22.28-5.06,38.77c-0.02,11.09,0.57,20.19,1.77,27.28
					c1.2,7.09,3.64,12.62,7.34,16.58c3.69,3.98,9.18,5.44,16.43,4.42c7.26-1.02,12.74-4.03,16.45-9.05
					C337.82,298.82,340.28,292.61,341.51,285.17"/>
			</g>
		</g>
	</g>
</g>
</svg>
