<?xml version="1.0" encoding="utf-8"?>
<!-- Generator: Adobe Illustrator 23.0.3, SVG Export Plug-In . SVG Version: 6.00 Build 0)  -->
<svg version="1.1" id="Layer_1" xmlns="http://www.w3.org/2000/svg" xmlns:xlink="http://www.w3.org/1999/xlink" x="0px" y="0px"
	 viewBox="0 0 512 512" style="enable-background:new 0 0 512 512;" xml:space="preserve">
<style type="text/css">
	.st0{fill:none;stroke:#231F20;stroke-width:15;stroke-miterlimit:10;}
	.st1{enable-background:new    ;}
	.st2{fill:#825400;}
	.st3{fill:#B47500;}
	.st4{fill:#DF9000;}
	.st5{clip-path:url(#SVGID_2_);enable-background:new    ;}
	.st6{fill:#996300;}
	.st7{fill:#946000;}
	.st8{fill:#8F5C00;}
	.st9{fill:#8A5900;}
	.st10{fill:#855600;}
	.st11{clip-path:url(#SVGID_4_);enable-background:new    ;}
	.st12{clip-path:url(#SVGID_6_);enable-background:new    ;}
	.st13{fill:#A86D00;}
	.st14{fill:#A36A00;}
	.st15{fill:#9E6600;}
	.st16{clip-path:url(#SVGID_8_);enable-background:new    ;}
	.st17{clip-path:url(#SVGID_10_);enable-background:new    ;}
	.st18{clip-path:url(#SVGID_12_);enable-background:new    ;}
	.st19{clip-path:url(#SVGID_14_);enable-background:new    ;}
	.st20{clip-path:url(#SVGID_16_);enable-background:new    ;}
	.st21{clip-path:url(#SVGID_18_);enable-background:new    ;}
	.st22{clip-path:url(#SVGID_20_);enable-background:new    ;}
	.st23{clip-path:url(#SVGID_22_);enable-background:new    ;}
	.st24{clip-path:url(#SVGID_24_);enable-background:new    ;}
	.st25{clip-path:url(#SVGID_26_);enable-background:new    ;}
	.st26{clip-path:url(#SVGID_28_);enable-background:new    ;}
	.st27{clip-path:url(#SVGID_30_);enable-background:new    ;}
	.st28{clip-path:url(#SVGID_32_);enable-background:new    ;}
	.st29{clip-path:url(#SVGID_34_);enable-background:new    ;}
	.st30{clip-path:url(#SVGID_36_);enable-background:new    ;}
	.st31{fill:#905D00;}
	.st32{clip-path:url(#SVGID_38_);enable-background:new    ;}
	.st33{clip-path:url(#SVGID_40_);enable-background:new    ;}
	.st34{clip-path:url(#SVGID_42_);enable-background:new    ;}
	.st35{clip-path:url(#SVGID_44_);enable-background:new    ;}
	.st36{clip-path:url(#SVGID_46_);enable-background:new    ;}
	.st37{clip-path:url(#SVGID_48_);enable-background:new    ;}
	.st38{clip-path:url(#SVGID_50_);enable-background:new    ;}
	.st39{clip-path:url(#SVGID_52_);enable-background:new    ;}
	.st40{clip-path:url(#SVGID_54_);enable-background:new    ;}
	.st41{clip-path:url(#SVGID_56_);enable-background:new    ;}
	.st42{clip-path:url(#SVGID_58_);enable-background:new    ;}
	.st43{clip-path:url(#SVGID_60_);enable-background:new    ;}
	.st44{clip-path:url(#SVGID_62_);enable-background:new    ;}
	.st45{clip-path:url(#SVGID_64_);enable-background:new    ;}
	.st46{fill:#121010;}
	.st47{fill:#191617;}
	.st48{fill:#1F1B1C;}
	.st49{clip-path:url(#SVGID_66_);enable-background:new    ;}
	.st50{fill:#151313;}
	.st51{fill:#141213;}
	.st52{fill:#141112;}
	.st53{fill:#131111;}
	.st54{fill:#121011;}
	.st55{clip-path:url(#SVGID_68_);enable-background:new    ;}
	.st56{clip-path:url(#SVGID_70_);enable-background:new    ;}
	.st57{fill:#171415;}
	.st58{fill:#161414;}
	.st59{fill:#161314;}
	.st60{clip-path:url(#SVGID_72_);enable-background:new    ;}
	.st61{clip-path:url(#SVGID_74_);enable-background:new    ;}
	.st62{clip-path:url(#SVGID_76_);enable-background:new    ;}
	.st63{clip-path:url(#SVGID_78_);enable-background:new    ;}
	.st64{clip-path:url(#SVGID_80_);enable-background:new    ;}
	.st65{clip-path:url(#SVGID_82_);enable-background:new    ;}
	.st66{clip-path:url(#SVGID_84_);enable-background:new    ;}
	.st67{clip-path:url(#SVGID_86_);enable-background:new    ;}
	.st68{clip-path:url(#SVGID_88_);enable-background:new    ;}
	.st69{clip-path:url(#SVGID_90_);enable-background:new    ;}
	.st70{clip-path:url(#SVGID_92_);enable-background:new    ;}
	.st71{clip-path:url(#SVGID_94_);enable-background:new    ;}
	.st72{clip-path:url(#SVGID_96_);enable-background:new    ;}
	.st73{clip-path:url(#SVGID_98_);enable-background:new    ;}
	.st74{clip-path:url(#SVGID_100_);enable-background:new    ;}
	.st75{clip-path:url(#SVGID_102_);enable-background:new    ;}
	.st76{clip-path:url(#SVGID_104_);enable-background:new    ;}
	.st77{clip-path:url(#SVGID_106_);enable-background:new    ;}
	.st78{clip-path:url(#SVGID_108_);enable-background:new    ;}
	.st79{clip-path:url(#SVGID_110_);enable-background:new    ;}
	.st80{clip-path:url(#SVGID_112_);enable-background:new    ;}
	.st81{clip-path:url(#SVGID_114_);enable-background:new    ;}
	.st82{clip-path:url(#SVGID_116_);enable-background:new    ;}
	.st83{clip-path:url(#SVGID_118_);enable-background:new    ;}
	.st84{clip-path:url(#SVGID_120_);enable-background:new    ;}
	.st85{clip-path:url(#SVGID_122_);enable-background:new    ;}
	.st86{clip-path:url(#SVGID_124_);enable-background:new    ;}
	.st87{clip-path:url(#SVGID_126_);enable-background:new    ;}
	.st88{clip-path:url(#SVGID_128_);enable-background:new    ;}
	.st89{clip-path:url(#SVGID_130_);enable-background:new    ;}
	.st90{clip-path:url(#SVGID_132_);enable-background:new    ;}
	.st91{clip-path:url(#SVGID_134_);enable-background:new    ;}
	.st92{clip-path:url(#SVGID_136_);enable-background:new    ;}
	.st93{fill:#FFA500;}
	.st94{fill:#073344;}
	.st95{fill:#ECEEF1;}
</style>
<circle class="st0" cx="256" cy="256" r="204"/>
<g>
	<g>
		<g class="st1">
			<g>
				<polygon class="st46" points="187.63,370.2 164.83,357.8 165.09,218.03 187.89,230.42 				"/>
			</g>
			<g>
				<polygon class="st46" points="165.43,233.58 142.64,221.18 142.71,182.27 165.51,194.67 				"/>
			</g>
			<g>
				<polygon class="st47" points="165.51,194.67 142.71,182.27 205.53,173.44 228.32,185.84 				"/>
			</g>
			<g>
				<polygon class="st48" points="228.32,185.84 227.99,364.53 187.63,370.2 187.89,230.42 165.43,233.58 165.51,194.67 				"/>
			</g>
		</g>
		<g class="st1">
			<g>
				<polygon class="st47" points="305.85,317.12 283.06,304.72 344.29,296.12 367.08,308.51 				"/>
			</g>
			<g class="st1">
				<defs>
					<path id="SVGID_65_" class="st1" d="M253.22,327.46l-22.79-12.4c4.8-4.78,7.17-7.16,7.1-7.15l22.79,12.4
						C260.39,320.3,258.02,322.67,253.22,327.46z"/>
				</defs>
				<clipPath id="SVGID_2_">
					<use xlink:href="#SVGID_65_"  style="overflow:visible;"/>
				</clipPath>
				<g class="st5">
					<path class="st50" d="M253.22,327.46l-22.79-12.4c4.34-4.32,6.69-6.68,7.05-7.09l22.79,12.4
						C259.91,320.78,257.56,323.13,253.22,327.46"/>
					<path class="st51" d="M260.27,320.37l-22.79-12.4c0.02-0.02,0.03-0.04,0.04-0.05l22.79,12.4
						C260.31,320.33,260.29,320.35,260.27,320.37"/>
					<polyline class="st52" points="260.32,320.32 237.52,307.92 237.53,307.91 260.32,320.31 260.32,320.32 					"/>
					<polyline class="st53" points="260.32,320.31 237.53,307.91 237.53,307.91 260.32,320.31 260.32,320.31 					"/>
					<polyline class="st54" points="260.32,320.31 237.53,307.91 237.53,307.91 260.32,320.31 260.32,320.31 					"/>
				</g>
			</g>
			<g>
				<polygon class="st46" points="253.17,358.55 230.37,346.15 230.43,315.06 253.22,327.46 				"/>
			</g>
			<g class="st1">
				<defs>
					<path id="SVGID_67_" class="st1" d="M295.79,194.74l22.79,12.4c1.18,0.64,2.21,1.48,3.11,2.53c2.86,3.35,4.28,8.37,4.27,15.06
						c-0.02,8.81-2.98,18.29-8.89,28.42c-5.91,10.12-13.15,20.03-21.71,29.73c-8.55,9.68-20.25,22.17-35.04,37.44l-22.79-12.4
						c14.79-15.26,26.49-27.75,35.04-37.44c8.56-9.69,15.8-19.6,21.71-29.73c5.91-10.13,8.88-19.61,8.89-28.42
						c0.01-6.69-1.41-11.71-4.27-15.06C298.01,196.22,296.97,195.38,295.79,194.74z"/>
				</defs>
				<clipPath id="SVGID_4_">
					<use xlink:href="#SVGID_67_"  style="overflow:visible;"/>
				</clipPath>
				<g class="st11">
					<path class="st50" d="M260.32,320.31l-22.79-12.4c14.79-15.26,26.49-27.75,35.04-37.44c0.01-0.01,0.02-0.03,0.04-0.04
						l22.79,12.4c-0.01,0.01-0.02,0.03-0.04,0.04C286.81,292.55,275.11,305.04,260.32,320.31"/>
					<path class="st51" d="M295.4,282.83l-22.79-12.4c5.09-5.77,9.71-11.61,13.87-17.53l22.79,12.4
						C305.12,271.22,300.49,277.06,295.4,282.83"/>
					<path class="st52" d="M309.27,265.3l-22.79-12.4c2.82-4.02,5.42-8.07,7.81-12.15c0.53-0.9,1.03-1.8,1.51-2.69l22.79,12.4
						c-0.48,0.89-0.98,1.79-1.51,2.69C314.69,257.23,312.09,261.28,309.27,265.3"/>
					<path class="st53" d="M318.58,250.46l-22.79-12.4c1.7-3.16,3.1-6.25,4.22-9.27l22.79,12.4
						C321.69,244.21,320.28,247.3,318.58,250.46"/>
					<path class="st54" d="M322.8,241.18l-22.79-12.4c2.1-5.72,3.16-11.21,3.17-16.46c0.01-6.69-1.41-11.71-4.27-15.06
						c-0.9-1.05-1.93-1.89-3.11-2.53l22.79,12.4c1.18,0.64,2.21,1.48,3.11,2.53c2.86,3.35,4.28,8.37,4.27,15.06
						C325.96,229.98,324.9,235.46,322.8,241.18"/>
				</g>
			</g>
			<g class="st1">
				<defs>
					<path id="SVGID_69_" class="st1" d="M321.28,162.08l22.79,12.4c-8.59-4.68-19.81-6.04-33.64-4.1l-22.79-12.4
						C301.47,156.04,312.68,157.41,321.28,162.08z"/>
				</defs>
				<clipPath id="SVGID_6_">
					<use xlink:href="#SVGID_69_"  style="overflow:visible;"/>
				</clipPath>
				<g class="st12">
					<path class="st57" d="M310.43,170.38l-22.79-12.4c9.58-1.35,17.91-1.1,24.97,0.72l22.79,12.4
						C328.34,169.28,320.01,169.04,310.43,170.38"/>
					<path class="st58" d="M335.4,171.11l-22.79-12.4c2.64,0.68,5.1,1.59,7.39,2.71l22.79,12.4
						C340.5,172.69,338.04,171.79,335.4,171.11"/>
					<path class="st59" d="M342.79,173.82L320,161.42c0.43,0.21,0.86,0.43,1.28,0.66l22.79,12.4
						C343.65,174.25,343.22,174.03,342.79,173.82"/>
				</g>
			</g>
			<g class="st1">
				<defs>
					<path id="SVGID_71_" class="st1" d="M252.94,240.38l-22.79-12.4c0.32-13.91,3.11-25.89,8.34-35.92
						c5.24-10.04,12.13-17.86,20.68-23.47c8.55-5.6,18.04-9.14,28.47-10.61l22.79,12.4c-10.43,1.47-19.93,5-28.47,10.61
						c-8.56,5.61-15.44,13.43-20.68,23.47C256.04,214.48,253.26,226.47,252.94,240.38z"/>
				</defs>
				<clipPath id="SVGID_8_">
					<use xlink:href="#SVGID_71_"  style="overflow:visible;"/>
				</clipPath>
				<g class="st16">
					<path class="st54" d="M252.94,240.38l-22.79-12.4c0.24-10.51,1.89-19.93,4.95-28.23l22.79,12.4
						C254.83,220.45,253.18,229.86,252.94,240.38"/>
					<path class="st53" d="M257.88,212.15l-22.79-12.4c0.99-2.68,2.12-5.24,3.39-7.69c0.15-0.28,0.29-0.56,0.44-0.84l22.79,12.4
						c-0.15,0.28-0.3,0.56-0.44,0.84C260,206.9,258.87,209.47,257.88,212.15"/>
					<path class="st52" d="M261.72,203.62l-22.79-12.4c1.35-2.51,2.8-4.88,4.37-7.1l22.79,12.4
						C264.52,198.74,263.07,201.11,261.72,203.62"/>
					<path class="st51" d="M266.08,196.52l-22.79-12.4c1.36-1.95,2.81-3.78,4.34-5.51l22.79,12.4
						C268.89,192.74,267.45,194.57,266.08,196.52"/>
					<path class="st50" d="M270.42,191.01l-22.79-12.4c1.49-1.69,3.06-3.27,4.7-4.75l22.79,12.4
						C273.48,187.73,271.91,189.32,270.42,191.01"/>
					<path class="st59" d="M275.13,186.25l-22.79-12.4c1.8-1.62,3.68-3.11,5.66-4.48l22.79,12.4
						C278.81,183.14,276.92,184.64,275.13,186.25"/>
					<path class="st58" d="M280.79,181.77L258,169.37c0.39-0.27,0.78-0.53,1.17-0.79c2.67-1.75,5.44-3.3,8.3-4.65l22.79,12.4
						c-2.86,1.35-5.63,2.9-8.3,4.65C281.56,181.24,281.17,181.51,280.79,181.77"/>
					<path class="st57" d="M290.26,176.34l-22.79-12.4c6.28-2.96,13.01-4.95,20.17-5.95l22.79,12.4
						C303.26,171.39,296.54,173.37,290.26,176.34"/>
				</g>
			</g>
			<g>
				<path class="st48" d="M310.43,170.38c17.99-2.53,31.55,0.54,40.68,9.21c9.13,8.67,13.68,21,13.65,37
					c-0.03,17.46-5.58,34.43-16.65,50.92s-25.15,33.02-42.26,49.62l61.23-8.61l-0.06,34.03l-113.85,16l0.06-31.09
					c4.8-4.78,7.17-7.16,7.1-7.15c14.79-15.26,26.49-27.75,35.04-37.44c8.56-9.69,15.8-19.6,21.71-29.73
					c5.91-10.13,8.88-19.61,8.89-28.42c0.01-6.69-1.41-11.71-4.27-15.06c-2.87-3.35-7.17-4.62-12.92-3.81
					c-5.75,0.81-10.25,3.77-13.51,8.87c-3.26,5.11-4.9,11.91-4.91,20.39l-37.42,5.26c0.32-13.91,3.11-25.89,8.34-35.92
					c5.24-10.04,12.13-17.86,20.68-23.47C290.5,175.39,300,171.85,310.43,170.38z"/>
			</g>
		</g>
	</g>
</g>
</svg>
