<?xml version="1.0" encoding="utf-8"?>
<!-- Generator: Adobe Illustrator 23.0.3, SVG Export Plug-In . SVG Version: 6.00 Build 0)  -->
<svg version="1.1" id="Layer_1" xmlns="http://www.w3.org/2000/svg" xmlns:xlink="http://www.w3.org/1999/xlink" x="0px" y="0px"
	 viewBox="0 0 512 512" style="enable-background:new 0 0 512 512;" xml:space="preserve">
<style type="text/css">
	.st0{fill:#073344;stroke:#FFA500;stroke-width:15;stroke-miterlimit:10;}
	.st1{enable-background:new    ;}
	.st2{fill:#825400;}
	.st3{fill:#B47500;}
	.st4{fill:#DF9000;}
	.st5{clip-path:url(#SVGID_2_);enable-background:new    ;}
	.st6{fill:#996300;}
	.st7{fill:#946000;}
	.st8{fill:#8F5C00;}
	.st9{fill:#8A5900;}
	.st10{fill:#855600;}
	.st11{clip-path:url(#SVGID_4_);enable-background:new    ;}
	.st12{clip-path:url(#SVGID_6_);enable-background:new    ;}
	.st13{fill:#A86D00;}
	.st14{fill:#A36A00;}
	.st15{fill:#9E6600;}
	.st16{clip-path:url(#SVGID_8_);enable-background:new    ;}
	.st17{clip-path:url(#SVGID_10_);enable-background:new    ;}
	.st18{clip-path:url(#SVGID_12_);enable-background:new    ;}
	.st19{clip-path:url(#SVGID_14_);enable-background:new    ;}
	.st20{clip-path:url(#SVGID_16_);enable-background:new    ;}
	.st21{clip-path:url(#SVGID_18_);enable-background:new    ;}
	.st22{clip-path:url(#SVGID_20_);enable-background:new    ;}
	.st23{clip-path:url(#SVGID_22_);enable-background:new    ;}
	.st24{clip-path:url(#SVGID_24_);enable-background:new    ;}
	.st25{clip-path:url(#SVGID_26_);enable-background:new    ;}
	.st26{clip-path:url(#SVGID_28_);enable-background:new    ;}
	.st27{clip-path:url(#SVGID_30_);enable-background:new    ;}
	.st28{clip-path:url(#SVGID_32_);enable-background:new    ;}
	.st29{clip-path:url(#SVGID_34_);enable-background:new    ;}
	.st30{clip-path:url(#SVGID_36_);enable-background:new    ;}
	.st31{clip-path:url(#SVGID_38_);enable-background:new    ;}
	.st32{clip-path:url(#SVGID_40_);enable-background:new    ;}
	.st33{clip-path:url(#SVGID_42_);enable-background:new    ;}
	.st34{clip-path:url(#SVGID_44_);enable-background:new    ;}
	.st35{fill:#905D00;}
	.st36{clip-path:url(#SVGID_46_);enable-background:new    ;}
	.st37{clip-path:url(#SVGID_48_);enable-background:new    ;}
	.st38{clip-path:url(#SVGID_50_);enable-background:new    ;}
	.st39{clip-path:url(#SVGID_52_);enable-background:new    ;}
	.st40{clip-path:url(#SVGID_54_);enable-background:new    ;}
	.st41{clip-path:url(#SVGID_56_);enable-background:new    ;}
	.st42{clip-path:url(#SVGID_58_);enable-background:new    ;}
	.st43{clip-path:url(#SVGID_60_);enable-background:new    ;}
	.st44{clip-path:url(#SVGID_62_);enable-background:new    ;}
	.st45{clip-path:url(#SVGID_64_);enable-background:new    ;}
	.st46{clip-path:url(#SVGID_66_);enable-background:new    ;}
	.st47{clip-path:url(#SVGID_68_);enable-background:new    ;}
	.st48{clip-path:url(#SVGID_70_);enable-background:new    ;}
	.st49{clip-path:url(#SVGID_72_);enable-background:new    ;}
	.st50{clip-path:url(#SVGID_74_);enable-background:new    ;}
	.st51{clip-path:url(#SVGID_76_);enable-background:new    ;}
	.st52{clip-path:url(#SVGID_78_);enable-background:new    ;}
	.st53{clip-path:url(#SVGID_80_);enable-background:new    ;}
	.st54{clip-path:url(#SVGID_82_);enable-background:new    ;}
	.st55{clip-path:url(#SVGID_84_);enable-background:new    ;}
	.st56{clip-path:url(#SVGID_86_);enable-background:new    ;}
	.st57{clip-path:url(#SVGID_88_);enable-background:new    ;}
	.st58{clip-path:url(#SVGID_90_);enable-background:new    ;}
	.st59{clip-path:url(#SVGID_92_);enable-background:new    ;}
	.st60{clip-path:url(#SVGID_94_);enable-background:new    ;}
	.st61{clip-path:url(#SVGID_96_);enable-background:new    ;}
	.st62{clip-path:url(#SVGID_98_);enable-background:new    ;}
	.st63{clip-path:url(#SVGID_100_);enable-background:new    ;}
	.st64{clip-path:url(#SVGID_102_);enable-background:new    ;}
	.st65{clip-path:url(#SVGID_104_);enable-background:new    ;}
	.st66{clip-path:url(#SVGID_106_);enable-background:new    ;}
	.st67{clip-path:url(#SVGID_108_);enable-background:new    ;}
	.st68{clip-path:url(#SVGID_110_);enable-background:new    ;}
	.st69{clip-path:url(#SVGID_112_);enable-background:new    ;}
	.st70{clip-path:url(#SVGID_114_);enable-background:new    ;}
	.st71{clip-path:url(#SVGID_116_);enable-background:new    ;}
	.st72{clip-path:url(#SVGID_118_);enable-background:new    ;}
	.st73{clip-path:url(#SVGID_120_);enable-background:new    ;}
	.st74{clip-path:url(#SVGID_122_);enable-background:new    ;}
	.st75{clip-path:url(#SVGID_124_);enable-background:new    ;}
	.st76{clip-path:url(#SVGID_126_);enable-background:new    ;}
	.st77{clip-path:url(#SVGID_128_);enable-background:new    ;}
	.st78{clip-path:url(#SVGID_130_);enable-background:new    ;}
	.st79{clip-path:url(#SVGID_132_);enable-background:new    ;}
	.st80{clip-path:url(#SVGID_134_);enable-background:new    ;}
	.st81{clip-path:url(#SVGID_136_);enable-background:new    ;}
	.st82{clip-path:url(#SVGID_138_);enable-background:new    ;}
	.st83{clip-path:url(#SVGID_140_);enable-background:new    ;}
	.st84{clip-path:url(#SVGID_142_);enable-background:new    ;}
	.st85{clip-path:url(#SVGID_144_);enable-background:new    ;}
	.st86{clip-path:url(#SVGID_146_);enable-background:new    ;}
	.st87{clip-path:url(#SVGID_148_);enable-background:new    ;}
	.st88{clip-path:url(#SVGID_150_);enable-background:new    ;}
	.st89{clip-path:url(#SVGID_152_);enable-background:new    ;}
	.st90{clip-path:url(#SVGID_154_);enable-background:new    ;}
	.st91{clip-path:url(#SVGID_156_);enable-background:new    ;}
	.st92{clip-path:url(#SVGID_158_);enable-background:new    ;}
	.st93{clip-path:url(#SVGID_160_);enable-background:new    ;}
	.st94{clip-path:url(#SVGID_162_);enable-background:new    ;}
	.st95{clip-path:url(#SVGID_164_);enable-background:new    ;}
	.st96{clip-path:url(#SVGID_166_);enable-background:new    ;}
	.st97{clip-path:url(#SVGID_168_);enable-background:new    ;}
	.st98{clip-path:url(#SVGID_170_);enable-background:new    ;}
	.st99{clip-path:url(#SVGID_172_);enable-background:new    ;}
	.st100{clip-path:url(#SVGID_174_);enable-background:new    ;}
	.st101{clip-path:url(#SVGID_176_);enable-background:new    ;}
	.st102{clip-path:url(#SVGID_178_);enable-background:new    ;}
	.st103{clip-path:url(#SVGID_180_);enable-background:new    ;}
	.st104{clip-path:url(#SVGID_182_);enable-background:new    ;}
	.st105{clip-path:url(#SVGID_184_);enable-background:new    ;}
	.st106{clip-path:url(#SVGID_186_);enable-background:new    ;}
	.st107{clip-path:url(#SVGID_188_);enable-background:new    ;}
	.st108{clip-path:url(#SVGID_190_);enable-background:new    ;}
	.st109{clip-path:url(#SVGID_192_);enable-background:new    ;}
	.st110{clip-path:url(#SVGID_194_);enable-background:new    ;}
	.st111{clip-path:url(#SVGID_196_);enable-background:new    ;}
	.st112{clip-path:url(#SVGID_198_);enable-background:new    ;}
	.st113{clip-path:url(#SVGID_200_);enable-background:new    ;}
	.st114{clip-path:url(#SVGID_202_);enable-background:new    ;}
	.st115{clip-path:url(#SVGID_204_);enable-background:new    ;}
	.st116{clip-path:url(#SVGID_206_);enable-background:new    ;}
	.st117{clip-path:url(#SVGID_208_);enable-background:new    ;}
	.st118{clip-path:url(#SVGID_210_);enable-background:new    ;}
	.st119{clip-path:url(#SVGID_212_);enable-background:new    ;}
	.st120{clip-path:url(#SVGID_214_);enable-background:new    ;}
	.st121{clip-path:url(#SVGID_216_);enable-background:new    ;}
	.st122{clip-path:url(#SVGID_218_);enable-background:new    ;}
	.st123{clip-path:url(#SVGID_220_);enable-background:new    ;}
	.st124{clip-path:url(#SVGID_222_);enable-background:new    ;}
	.st125{clip-path:url(#SVGID_224_);enable-background:new    ;}
	.st126{clip-path:url(#SVGID_226_);enable-background:new    ;}
	.st127{clip-path:url(#SVGID_228_);enable-background:new    ;}
	.st128{clip-path:url(#SVGID_230_);enable-background:new    ;}
	.st129{clip-path:url(#SVGID_232_);enable-background:new    ;}
	.st130{clip-path:url(#SVGID_234_);enable-background:new    ;}
	.st131{clip-path:url(#SVGID_236_);enable-background:new    ;}
	.st132{clip-path:url(#SVGID_238_);enable-background:new    ;}
	.st133{clip-path:url(#SVGID_240_);enable-background:new    ;}
	.st134{clip-path:url(#SVGID_242_);enable-background:new    ;}
	.st135{clip-path:url(#SVGID_244_);enable-background:new    ;}
	.st136{clip-path:url(#SVGID_246_);enable-background:new    ;}
	.st137{clip-path:url(#SVGID_248_);enable-background:new    ;}
	.st138{clip-path:url(#SVGID_250_);enable-background:new    ;}
	.st139{clip-path:url(#SVGID_252_);enable-background:new    ;}
	.st140{clip-path:url(#SVGID_254_);enable-background:new    ;}
	.st141{clip-path:url(#SVGID_256_);enable-background:new    ;}
	.st142{clip-path:url(#SVGID_258_);enable-background:new    ;}
	.st143{clip-path:url(#SVGID_260_);enable-background:new    ;}
	.st144{clip-path:url(#SVGID_262_);enable-background:new    ;}
	.st145{clip-path:url(#SVGID_264_);enable-background:new    ;}
	.st146{clip-path:url(#SVGID_266_);enable-background:new    ;}
	.st147{clip-path:url(#SVGID_268_);enable-background:new    ;}
	.st148{clip-path:url(#SVGID_270_);enable-background:new    ;}
	.st149{clip-path:url(#SVGID_272_);enable-background:new    ;}
	.st150{clip-path:url(#SVGID_274_);enable-background:new    ;}
	.st151{clip-path:url(#SVGID_276_);enable-background:new    ;}
	.st152{clip-path:url(#SVGID_278_);enable-background:new    ;}
	.st153{clip-path:url(#SVGID_280_);enable-background:new    ;}
	.st154{fill:#FFA500;}
	.st155{fill:#073344;}
	.st156{fill:#ECEEF1;}
</style>
<circle class="st0" cx="256" cy="256" r="204"/>
<g>
	<g>
		<g class="st1">
			<g>
				<polygon class="st3" points="268.88,318.83 246.09,306.43 307.32,297.82 330.11,310.22 				"/>
			</g>
			<g class="st1">
				<defs>
					<path id="SVGID_9_" class="st1" d="M216.26,329.16l-22.79-12.4c4.79-4.78,7.16-7.16,7.1-7.15l22.79,12.4
						C223.42,322,221.05,324.39,216.26,329.16z"/>
				</defs>
				<clipPath id="SVGID_2_">
					<use xlink:href="#SVGID_9_"  style="overflow:visible;"/>
				</clipPath>
				<g class="st5">
					<path class="st6" d="M216.26,329.16l-22.79-12.4c4.35-4.33,6.7-6.7,7.05-7.09l22.79,12.4
						C222.96,322.47,220.6,324.83,216.26,329.16"/>
					<path class="st7" d="M223.31,322.07l-22.79-12.4c0.02-0.02,0.03-0.04,0.04-0.05l22.79,12.4
						C223.34,322.04,223.33,322.05,223.31,322.07"/>
					<polyline class="st8" points="223.35,322.03 200.56,309.63 200.56,309.62 223.35,322.02 223.35,322.03 					"/>
					<polyline class="st9" points="223.35,322.02 200.56,309.62 200.56,309.61 223.36,322.01 223.35,322.02 					"/>
					<polyline class="st10" points="223.36,322.01 200.56,309.61 200.56,309.61 223.35,322.01 223.36,322.01 					"/>
				</g>
			</g>
			<g>
				<polygon class="st2" points="216.2,360.25 193.4,347.85 193.46,316.77 216.26,329.16 				"/>
			</g>
			<g class="st1">
				<defs>
					<path id="SVGID_11_" class="st1" d="M258.81,196.44l22.79,12.4c1.18,0.64,2.22,1.49,3.12,2.54c2.87,3.35,4.29,8.37,4.28,15.06
						c-0.02,8.81-2.98,18.28-8.89,28.41s-13.15,20.04-21.71,29.73c-8.55,9.69-20.25,22.18-35.04,37.44l-22.79-12.4
						c14.79-15.26,26.49-27.75,35.04-37.44c8.55-9.68,15.8-19.59,21.71-29.73c5.91-10.13,8.88-19.6,8.89-28.41
						c0.01-6.69-1.41-11.71-4.28-15.06C261.03,197.93,259.99,197.08,258.81,196.44z"/>
				</defs>
				<clipPath id="SVGID_4_">
					<use xlink:href="#SVGID_11_"  style="overflow:visible;"/>
				</clipPath>
				<g class="st11">
					<path class="st6" d="M223.35,322.01l-22.79-12.4c14.79-15.26,26.49-27.75,35.04-37.44c0.01-0.02,0.03-0.03,0.04-0.05
						l22.79,12.4c-0.01,0.02-0.03,0.03-0.04,0.05C249.84,294.26,238.14,306.75,223.35,322.01"/>
					<path class="st7" d="M258.44,284.52l-22.79-12.4c5.09-5.76,9.71-11.61,13.87-17.53l22.79,12.4
						C268.15,272.92,263.53,278.76,258.44,284.52"/>
					<path class="st8" d="M272.31,266.99l-22.79-12.4c2.82-4.01,5.42-8.06,7.8-12.15c0.53-0.9,1.03-1.8,1.51-2.69l22.79,12.4
						c-0.48,0.89-0.98,1.79-1.51,2.69C277.72,258.93,275.12,262.98,272.31,266.99"/>
					<path class="st9" d="M281.62,252.15l-22.79-12.4c1.7-3.16,3.1-6.25,4.22-9.28l22.79,12.4
						C284.72,245.9,283.32,249,281.62,252.15"/>
					<path class="st10" d="M285.83,242.88l-22.79-12.4c2.1-5.71,3.16-11.2,3.17-16.44c0.01-6.69-1.41-11.71-4.28-15.06
						c-0.9-1.05-1.94-1.9-3.12-2.54l22.79,12.4c1.18,0.64,2.22,1.49,3.12,2.54c2.87,3.35,4.29,8.37,4.28,15.06
						C288.99,231.68,287.94,237.16,285.83,242.88"/>
				</g>
			</g>
			<g class="st1">
				<defs>
					<path id="SVGID_13_" class="st1" d="M284.31,163.78l22.79,12.4c-8.59-4.68-19.81-6.04-33.64-4.1l-22.79-12.4
						C264.5,157.74,275.72,159.11,284.31,163.78z"/>
				</defs>
				<clipPath id="SVGID_6_">
					<use xlink:href="#SVGID_13_"  style="overflow:visible;"/>
				</clipPath>
				<g class="st12">
					<path class="st13" d="M273.46,172.08l-22.79-12.4c9.58-1.35,17.91-1.1,24.97,0.72l22.79,12.4
						C291.37,170.98,283.04,170.74,273.46,172.08"/>
					<path class="st14" d="M298.44,172.81l-22.79-12.4c2.64,0.68,5.1,1.59,7.39,2.71l22.79,12.4
						C303.53,174.39,301.07,173.49,298.44,172.81"/>
					<path class="st15" d="M305.82,175.52l-22.79-12.4c0.43,0.21,0.86,0.43,1.28,0.66l22.79,12.4
						C306.68,175.95,306.25,175.73,305.82,175.52"/>
				</g>
			</g>
			<g class="st1">
				<defs>
					<path id="SVGID_15_" class="st1" d="M215.97,242.08l-22.79-12.4c0.32-13.91,3.11-25.88,8.34-35.92
						c5.23-10.04,12.13-17.86,20.68-23.46c8.55-5.61,18.04-9.15,28.47-10.61l22.79,12.4c-10.44,1.47-19.93,5-28.47,10.61
						c-8.56,5.6-15.45,13.43-20.68,23.46C219.08,216.19,216.29,228.17,215.97,242.08z"/>
				</defs>
				<clipPath id="SVGID_8_">
					<use xlink:href="#SVGID_15_"  style="overflow:visible;"/>
				</clipPath>
				<g class="st16">
					<path class="st10" d="M215.97,242.08l-22.79-12.4c0.24-10.52,1.89-19.93,4.95-28.23l22.79,12.4
						C217.86,222.15,216.21,231.56,215.97,242.08"/>
					<path class="st9" d="M220.92,213.85l-22.79-12.4c0.98-2.68,2.12-5.24,3.39-7.69c0.15-0.29,0.31-0.58,0.46-0.87l22.79,12.4
						c-0.16,0.29-0.31,0.58-0.46,0.87C223.03,208.61,221.9,211.17,220.92,213.85"/>
					<path class="st8" d="M224.77,205.29l-22.79-12.4c1.34-2.5,2.79-4.85,4.34-7.07l22.79,12.4
						C227.56,200.43,226.11,202.79,224.77,205.29"/>
					<path class="st7" d="M229.11,198.22l-22.79-12.4c1.36-1.94,2.8-3.77,4.33-5.5l22.79,12.4
						C231.92,194.45,230.47,196.28,229.11,198.22"/>
					<path class="st6" d="M233.44,192.72l-22.79-12.4c1.49-1.69,3.05-3.27,4.7-4.75l22.79,12.4
						C236.49,189.45,234.93,191.04,233.44,192.72"/>
					<path class="st15" d="M238.14,187.98l-22.79-12.4c1.79-1.61,3.68-3.11,5.66-4.47l22.79,12.4
						C241.82,184.87,239.93,186.36,238.14,187.98"/>
					<path class="st14" d="M243.79,183.5L221,171.1c0.39-0.27,0.79-0.54,1.2-0.8c2.68-1.76,5.46-3.32,8.33-4.67l22.79,12.4
						c-2.87,1.35-5.64,2.91-8.33,4.67C244.59,182.96,244.19,183.23,243.79,183.5"/>
					<path class="st13" d="M253.32,178.03l-22.79-12.4c6.27-2.96,12.98-4.94,20.15-5.94l22.79,12.4
						C266.3,173.09,259.59,175.07,253.32,178.03"/>
				</g>
			</g>
			<g>
				<path class="st4" d="M273.46,172.08c17.99-2.53,31.55,0.54,40.68,9.21c9.13,8.67,13.68,21.01,13.65,37
					c-0.03,17.46-5.58,34.43-16.65,50.92c-11.07,16.48-25.16,33.03-42.26,49.62l61.23-8.61l-0.06,34.02l-113.85,16l0.06-31.08
					c4.79-4.78,7.16-7.16,7.1-7.15c14.79-15.26,26.49-27.75,35.04-37.44c8.55-9.68,15.8-19.59,21.71-29.73s8.88-19.6,8.89-28.41
					c0.01-6.69-1.41-11.71-4.28-15.06c-2.86-3.35-7.17-4.63-12.91-3.82c-5.75,0.81-10.25,3.77-13.51,8.87
					c-3.26,5.11-4.9,11.91-4.91,20.39l-37.42,5.26c0.32-13.91,3.11-25.88,8.34-35.92c5.23-10.04,12.13-17.86,20.68-23.46
					C253.54,177.09,263.02,173.55,273.46,172.08z"/>
			</g>
		</g>
	</g>
</g>
</svg>
