<?xml version="1.0" encoding="utf-8"?>
<!-- Generator: Adobe Illustrator 23.0.3, SVG Export Plug-In . SVG Version: 6.00 Build 0)  -->
<svg version="1.1" id="Layer_1" xmlns="http://www.w3.org/2000/svg" xmlns:xlink="http://www.w3.org/1999/xlink" x="0px" y="0px"
	 viewBox="0 0 512 512" style="enable-background:new 0 0 512 512;" xml:space="preserve">
<style type="text/css">
	.st0{fill:none;stroke:#231F20;stroke-width:15;stroke-miterlimit:10;}
	.st1{enable-background:new    ;}
	.st2{fill:#825400;}
	.st3{fill:#B47500;}
	.st4{fill:#DF9000;}
	.st5{clip-path:url(#SVGID_2_);enable-background:new    ;}
	.st6{fill:#996300;}
	.st7{fill:#946000;}
	.st8{fill:#8F5C00;}
	.st9{fill:#8A5900;}
	.st10{fill:#855600;}
	.st11{clip-path:url(#SVGID_4_);enable-background:new    ;}
	.st12{clip-path:url(#SVGID_6_);enable-background:new    ;}
	.st13{fill:#A86D00;}
	.st14{fill:#A36A00;}
	.st15{fill:#9E6600;}
	.st16{clip-path:url(#SVGID_8_);enable-background:new    ;}
	.st17{clip-path:url(#SVGID_10_);enable-background:new    ;}
	.st18{clip-path:url(#SVGID_12_);enable-background:new    ;}
	.st19{clip-path:url(#SVGID_14_);enable-background:new    ;}
	.st20{clip-path:url(#SVGID_16_);enable-background:new    ;}
	.st21{clip-path:url(#SVGID_18_);enable-background:new    ;}
	.st22{clip-path:url(#SVGID_20_);enable-background:new    ;}
	.st23{clip-path:url(#SVGID_22_);enable-background:new    ;}
	.st24{clip-path:url(#SVGID_24_);enable-background:new    ;}
	.st25{clip-path:url(#SVGID_26_);enable-background:new    ;}
	.st26{clip-path:url(#SVGID_28_);enable-background:new    ;}
	.st27{clip-path:url(#SVGID_30_);enable-background:new    ;}
	.st28{clip-path:url(#SVGID_32_);enable-background:new    ;}
	.st29{clip-path:url(#SVGID_34_);enable-background:new    ;}
	.st30{clip-path:url(#SVGID_36_);enable-background:new    ;}
	.st31{fill:#905D00;}
	.st32{clip-path:url(#SVGID_38_);enable-background:new    ;}
	.st33{fill:#161414;}
	.st34{fill:#161314;}
	.st35{clip-path:url(#SVGID_40_);enable-background:new    ;}
	.st36{fill:#141213;}
	.st37{fill:#141112;}
	.st38{fill:#131111;}
	.st39{fill:#121011;}
	.st40{clip-path:url(#SVGID_42_);enable-background:new    ;}
	.st41{fill:#171415;}
	.st42{fill:#151313;}
	.st43{clip-path:url(#SVGID_44_);enable-background:new    ;}
	.st44{clip-path:url(#SVGID_46_);enable-background:new    ;}
	.st45{clip-path:url(#SVGID_48_);enable-background:new    ;}
	.st46{fill:#1F1B1C;}
	.st47{clip-path:url(#SVGID_50_);enable-background:new    ;}
	.st48{clip-path:url(#SVGID_52_);enable-background:new    ;}
	.st49{clip-path:url(#SVGID_54_);enable-background:new    ;}
	.st50{clip-path:url(#SVGID_56_);enable-background:new    ;}
	.st51{clip-path:url(#SVGID_58_);enable-background:new    ;}
	.st52{clip-path:url(#SVGID_60_);enable-background:new    ;}
	.st53{clip-path:url(#SVGID_62_);enable-background:new    ;}
	.st54{clip-path:url(#SVGID_64_);enable-background:new    ;}
	.st55{clip-path:url(#SVGID_66_);enable-background:new    ;}
	.st56{clip-path:url(#SVGID_68_);enable-background:new    ;}
	.st57{clip-path:url(#SVGID_70_);enable-background:new    ;}
	.st58{clip-path:url(#SVGID_72_);enable-background:new    ;}
	.st59{clip-path:url(#SVGID_74_);enable-background:new    ;}
	.st60{clip-path:url(#SVGID_76_);enable-background:new    ;}
	.st61{clip-path:url(#SVGID_78_);enable-background:new    ;}
	.st62{clip-path:url(#SVGID_80_);enable-background:new    ;}
	.st63{clip-path:url(#SVGID_82_);enable-background:new    ;}
	.st64{clip-path:url(#SVGID_84_);enable-background:new    ;}
	.st65{clip-path:url(#SVGID_86_);enable-background:new    ;}
	.st66{clip-path:url(#SVGID_88_);enable-background:new    ;}
	.st67{clip-path:url(#SVGID_90_);enable-background:new    ;}
	.st68{clip-path:url(#SVGID_92_);enable-background:new    ;}
	.st69{clip-path:url(#SVGID_94_);enable-background:new    ;}
	.st70{clip-path:url(#SVGID_96_);enable-background:new    ;}
	.st71{clip-path:url(#SVGID_98_);enable-background:new    ;}
	.st72{clip-path:url(#SVGID_100_);enable-background:new    ;}
	.st73{clip-path:url(#SVGID_102_);enable-background:new    ;}
	.st74{clip-path:url(#SVGID_104_);enable-background:new    ;}
	.st75{clip-path:url(#SVGID_106_);enable-background:new    ;}
	.st76{clip-path:url(#SVGID_108_);enable-background:new    ;}
	.st77{clip-path:url(#SVGID_110_);enable-background:new    ;}
	.st78{clip-path:url(#SVGID_112_);enable-background:new    ;}
	.st79{clip-path:url(#SVGID_114_);enable-background:new    ;}
	.st80{clip-path:url(#SVGID_116_);enable-background:new    ;}
	.st81{clip-path:url(#SVGID_118_);enable-background:new    ;}
	.st82{clip-path:url(#SVGID_120_);enable-background:new    ;}
	.st83{clip-path:url(#SVGID_122_);enable-background:new    ;}
	.st84{clip-path:url(#SVGID_124_);enable-background:new    ;}
	.st85{clip-path:url(#SVGID_126_);enable-background:new    ;}
	.st86{clip-path:url(#SVGID_128_);enable-background:new    ;}
	.st87{clip-path:url(#SVGID_130_);enable-background:new    ;}
	.st88{clip-path:url(#SVGID_132_);enable-background:new    ;}
	.st89{clip-path:url(#SVGID_134_);enable-background:new    ;}
	.st90{clip-path:url(#SVGID_136_);enable-background:new    ;}
	.st91{clip-path:url(#SVGID_138_);enable-background:new    ;}
	.st92{clip-path:url(#SVGID_140_);enable-background:new    ;}
	.st93{clip-path:url(#SVGID_142_);enable-background:new    ;}
	.st94{clip-path:url(#SVGID_144_);enable-background:new    ;}
	.st95{clip-path:url(#SVGID_146_);enable-background:new    ;}
	.st96{clip-path:url(#SVGID_148_);enable-background:new    ;}
	.st97{clip-path:url(#SVGID_150_);enable-background:new    ;}
	.st98{clip-path:url(#SVGID_152_);enable-background:new    ;}
	.st99{clip-path:url(#SVGID_154_);enable-background:new    ;}
	.st100{clip-path:url(#SVGID_156_);enable-background:new    ;}
	.st101{clip-path:url(#SVGID_158_);enable-background:new    ;}
	.st102{clip-path:url(#SVGID_160_);enable-background:new    ;}
	.st103{clip-path:url(#SVGID_162_);enable-background:new    ;}
	.st104{clip-path:url(#SVGID_164_);enable-background:new    ;}
	.st105{clip-path:url(#SVGID_166_);enable-background:new    ;}
	.st106{clip-path:url(#SVGID_168_);enable-background:new    ;}
	.st107{clip-path:url(#SVGID_170_);enable-background:new    ;}
	.st108{clip-path:url(#SVGID_172_);enable-background:new    ;}
	.st109{clip-path:url(#SVGID_174_);enable-background:new    ;}
	.st110{clip-path:url(#SVGID_176_);enable-background:new    ;}
	.st111{clip-path:url(#SVGID_178_);enable-background:new    ;}
	.st112{clip-path:url(#SVGID_180_);enable-background:new    ;}
	.st113{clip-path:url(#SVGID_182_);enable-background:new    ;}
	.st114{clip-path:url(#SVGID_184_);enable-background:new    ;}
	.st115{clip-path:url(#SVGID_186_);enable-background:new    ;}
	.st116{clip-path:url(#SVGID_188_);enable-background:new    ;}
	.st117{clip-path:url(#SVGID_190_);enable-background:new    ;}
	.st118{clip-path:url(#SVGID_192_);enable-background:new    ;}
	.st119{clip-path:url(#SVGID_194_);enable-background:new    ;}
	.st120{clip-path:url(#SVGID_196_);enable-background:new    ;}
	.st121{clip-path:url(#SVGID_198_);enable-background:new    ;}
	.st122{clip-path:url(#SVGID_200_);enable-background:new    ;}
	.st123{clip-path:url(#SVGID_202_);enable-background:new    ;}
	.st124{clip-path:url(#SVGID_204_);enable-background:new    ;}
	.st125{clip-path:url(#SVGID_206_);enable-background:new    ;}
	.st126{clip-path:url(#SVGID_208_);enable-background:new    ;}
	.st127{clip-path:url(#SVGID_210_);enable-background:new    ;}
	.st128{clip-path:url(#SVGID_212_);enable-background:new    ;}
	.st129{clip-path:url(#SVGID_214_);enable-background:new    ;}
	.st130{clip-path:url(#SVGID_216_);enable-background:new    ;}
	.st131{clip-path:url(#SVGID_218_);enable-background:new    ;}
	.st132{clip-path:url(#SVGID_220_);enable-background:new    ;}
	.st133{clip-path:url(#SVGID_222_);enable-background:new    ;}
	.st134{clip-path:url(#SVGID_224_);enable-background:new    ;}
	.st135{clip-path:url(#SVGID_226_);enable-background:new    ;}
	.st136{clip-path:url(#SVGID_228_);enable-background:new    ;}
	.st137{clip-path:url(#SVGID_230_);enable-background:new    ;}
	.st138{clip-path:url(#SVGID_232_);enable-background:new    ;}
	.st139{clip-path:url(#SVGID_234_);enable-background:new    ;}
	.st140{clip-path:url(#SVGID_236_);enable-background:new    ;}
	.st141{clip-path:url(#SVGID_238_);enable-background:new    ;}
	.st142{clip-path:url(#SVGID_240_);enable-background:new    ;}
	.st143{clip-path:url(#SVGID_242_);enable-background:new    ;}
	.st144{clip-path:url(#SVGID_244_);enable-background:new    ;}
	.st145{clip-path:url(#SVGID_246_);enable-background:new    ;}
	.st146{clip-path:url(#SVGID_248_);enable-background:new    ;}
	.st147{clip-path:url(#SVGID_250_);enable-background:new    ;}
	.st148{clip-path:url(#SVGID_252_);enable-background:new    ;}
	.st149{clip-path:url(#SVGID_254_);enable-background:new    ;}
	.st150{clip-path:url(#SVGID_256_);enable-background:new    ;}
	.st151{clip-path:url(#SVGID_258_);enable-background:new    ;}
	.st152{clip-path:url(#SVGID_260_);enable-background:new    ;}
	.st153{clip-path:url(#SVGID_262_);enable-background:new    ;}
	.st154{clip-path:url(#SVGID_264_);enable-background:new    ;}
	.st155{clip-path:url(#SVGID_266_);enable-background:new    ;}
	.st156{clip-path:url(#SVGID_268_);enable-background:new    ;}
	.st157{clip-path:url(#SVGID_270_);enable-background:new    ;}
	.st158{clip-path:url(#SVGID_272_);enable-background:new    ;}
	.st159{clip-path:url(#SVGID_274_);enable-background:new    ;}
	.st160{clip-path:url(#SVGID_276_);enable-background:new    ;}
	.st161{clip-path:url(#SVGID_278_);enable-background:new    ;}
	.st162{clip-path:url(#SVGID_280_);enable-background:new    ;}
	.st163{clip-path:url(#SVGID_282_);enable-background:new    ;}
	.st164{clip-path:url(#SVGID_284_);enable-background:new    ;}
	.st165{fill:#FFA500;}
	.st166{fill:#073344;}
	.st167{fill:#ECEEF1;}
</style>
<circle class="st0" cx="256" cy="256" r="204"/>
<g>
	<g>
		<g class="st1">
			<g class="st1">
				<defs>
					<path id="SVGID_37_" class="st1" d="M291.49,246.4l22.79,12.4c-1.69-0.92-3.48-1.74-5.37-2.45l-22.79-12.4
						C288.01,244.66,289.8,245.48,291.49,246.4z"/>
				</defs>
				<clipPath id="SVGID_2_">
					<use xlink:href="#SVGID_37_"  style="overflow:visible;"/>
				</clipPath>
				<g class="st5">
					<path class="st33" d="M308.91,256.35l-22.79-12.4c1.34,0.51,2.62,1.07,3.86,1.67l22.79,12.4
						C311.54,257.41,310.25,256.85,308.91,256.35"/>
					<path class="st34" d="M312.77,258.02l-22.79-12.4c0.51,0.25,1.01,0.51,1.51,0.78l22.79,12.4
						C313.79,258.53,313.28,258.27,312.77,258.02"/>
				</g>
			</g>
			<g class="st1">
				<defs>
					<path id="SVGID_39_" class="st1" d="M264.2,269.07l22.79,12.4c1.04,0.57,2.02,1.24,2.94,2.01c4.3,3.64,6.45,9.05,6.43,16.23
						c-0.01,6.86-2.11,12.78-6.27,17.77l-22.79-12.4c4.17-4.99,6.26-10.91,6.27-17.77c0.01-7.18-2.13-12.59-6.43-16.23
						C266.22,270.31,265.24,269.64,264.2,269.07z"/>
				</defs>
				<clipPath id="SVGID_4_">
					<use xlink:href="#SVGID_39_"  style="overflow:visible;"/>
				</clipPath>
				<g class="st11">
					<path class="st36" d="M290.09,317.48l-22.79-12.4c0.51-0.61,0.98-1.23,1.43-1.86l22.79,12.4
						C291.08,316.25,290.6,316.87,290.09,317.48"/>
					<path class="st37" d="M291.52,315.62l-22.79-12.4c0.61-0.87,1.16-1.76,1.65-2.67l22.79,12.4
						C292.68,313.86,292.13,314.75,291.52,315.62"/>
					<path class="st38" d="M293.17,312.94l-22.79-12.4c0.58-1.08,1.08-2.19,1.5-3.34l22.79,12.4
						C294.25,310.75,293.75,311.87,293.17,312.94"/>
					<path class="st39" d="M294.67,309.6l-22.79-12.4c1.12-3.05,1.68-6.35,1.69-9.89c0.01-7.18-2.13-12.59-6.43-16.23
						c-0.92-0.78-1.9-1.45-2.94-2.01l22.79,12.4c1.04,0.57,2.02,1.24,2.94,2.01c4.3,3.64,6.45,9.05,6.43,16.23
						C296.36,303.26,295.79,306.56,294.67,309.6"/>
				</g>
			</g>
			<g class="st1">
				<defs>
					<path id="SVGID_41_" class="st1" d="M258.77,324.54l-22.79-12.4c3.84,2.09,8.57,2.74,14.18,1.96
						c7.26-1.02,12.97-4.03,17.14-9.01l22.79,12.4c-4.17,4.99-9.88,7.99-17.14,9.01C267.34,327.28,262.61,326.63,258.77,324.54z"/>
				</defs>
				<clipPath id="SVGID_6_">
					<use xlink:href="#SVGID_41_"  style="overflow:visible;"/>
				</clipPath>
				<g class="st12">
					<path class="st34" d="M258.77,324.54l-22.79-12.4c0.21,0.11,0.41,0.22,0.63,0.32l22.79,12.4
						C259.19,324.76,258.98,324.65,258.77,324.54"/>
					<path class="st33" d="M259.4,324.86l-22.79-12.4c1.08,0.53,2.23,0.96,3.45,1.27l22.79,12.4
						C261.63,325.82,260.48,325.39,259.4,324.86"/>
					<path class="st41" d="M262.85,326.13l-22.79-12.4c2.97,0.77,6.34,0.89,10.11,0.36c3.21-0.45,6.12-1.29,8.73-2.52l22.79,12.4
						c-2.61,1.23-5.52,2.07-8.73,2.52C269.19,327.02,265.82,326.9,262.85,326.13"/>
					<path class="st33" d="M281.68,323.97l-22.79-12.4c1.25-0.59,2.44-1.27,3.55-2.04l22.79,12.4
						C284.12,322.7,282.93,323.38,281.68,323.97"/>
					<path class="st34" d="M285.23,321.93l-22.79-12.4c0.85-0.58,1.65-1.22,2.42-1.91l22.79,12.4
						C286.88,320.71,286.08,321.35,285.23,321.93"/>
					<path class="st42" d="M287.65,320.02l-22.79-12.4c0.7-0.63,1.36-1.3,1.99-2.01l22.79,12.4
						C289.01,318.72,288.34,319.39,287.65,320.02"/>
					<path class="st36" d="M289.64,318.01l-22.79-12.4c0.15-0.17,0.3-0.35,0.45-0.53l22.79,12.4
						C289.94,317.66,289.79,317.84,289.64,318.01"/>
				</g>
			</g>
			<g class="st1">
				<defs>
					<path id="SVGID_43_" class="st1" d="M261.74,248.47l-22.79-12.4c3.16,1.72,6.94,2.27,11.35,1.65
						c5.74-0.81,10.44-3.34,14.08-7.61c3.64-4.26,5.46-9.58,5.47-15.95c0.01-6.68-1.76-11.62-5.3-14.8c-0.83-0.74-1.73-1.38-2.7-1.9
						l22.79,12.4c0.96,0.52,1.86,1.16,2.7,1.9c3.54,3.18,5.31,8.11,5.3,14.8c-0.01,6.36-1.83,11.68-5.47,15.95
						c-3.64,4.26-8.33,6.8-14.08,7.61C268.69,250.74,264.9,250.19,261.74,248.47z"/>
				</defs>
				<clipPath id="SVGID_8_">
					<use xlink:href="#SVGID_43_"  style="overflow:visible;"/>
				</clipPath>
				<g class="st16">
					<path class="st34" d="M261.74,248.47l-22.79-12.4c0.18,0.1,0.36,0.19,0.54,0.28l22.79,12.4
						C262.1,248.66,261.92,248.57,261.74,248.47"/>
					<path class="st33" d="M262.28,248.75l-22.79-12.4c0.91,0.45,1.87,0.8,2.89,1.07l22.79,12.4
						C264.15,249.55,263.19,249.2,262.28,248.75"/>
					<path class="st41" d="M265.17,249.82l-22.79-12.4c2.37,0.61,5.01,0.72,7.93,0.31c2.45-0.34,4.71-1,6.78-1.98l22.79,12.4
						c-2.07,0.97-4.33,1.63-6.78,1.98C270.18,250.53,267.54,250.43,265.17,249.82"/>
					<path class="st33" d="M279.88,248.15l-22.79-12.4c1.06-0.5,2.06-1.08,3.02-1.74l22.79,12.4
						C281.94,247.07,280.94,247.65,279.88,248.15"/>
					<path class="st34" d="M282.9,246.41l-22.79-12.4c0.75-0.52,1.47-1.09,2.15-1.7l22.79,12.4
						C284.36,245.32,283.65,245.89,282.9,246.41"/>
					<path class="st42" d="M285.05,244.7l-22.79-12.4c0.64-0.58,1.26-1.2,1.85-1.87l22.79,12.4
						C286.31,243.5,285.7,244.12,285.05,244.7"/>
					<path class="st36" d="M286.9,242.83l-22.79-12.4c0.09-0.1,0.18-0.21,0.27-0.31c0.46-0.54,0.89-1.09,1.29-1.67l22.79,12.4
						c-0.4,0.57-0.83,1.13-1.29,1.67C287.08,242.62,286.99,242.73,286.9,242.83"/>
					<path class="st37" d="M288.46,240.85l-22.79-12.4c0.49-0.7,0.94-1.44,1.35-2.19l22.79,12.4
						C289.41,239.42,288.96,240.15,288.46,240.85"/>
					<path class="st38" d="M289.81,238.66l-22.79-12.4c0.49-0.92,0.92-1.87,1.28-2.86l22.79,12.4
						C290.73,236.8,290.31,237.75,289.81,238.66"/>
					<path class="st39" d="M291.1,235.81l-22.79-12.4c1.02-2.78,1.54-5.86,1.54-9.23c0.01-6.68-1.76-11.62-5.3-14.8
						c-0.83-0.74-1.73-1.38-2.7-1.9l22.79,12.4c0.96,0.52,1.86,1.16,2.7,1.9c3.54,3.18,5.31,8.11,5.3,14.8
						C292.63,229.94,292.12,233.02,291.1,235.81"/>
				</g>
			</g>
			<g class="st1">
				<defs>
					<path id="SVGID_45_" class="st1" d="M234.24,355.17l-22.79-12.4c-5.75-3.13-10.54-7.39-14.37-12.77
						c-5.42-7.64-8.13-17.25-8.11-28.84c0.02-10.12,2.22-19.2,6.63-27.24c4.4-8.04,10.61-14.66,18.63-19.87l22.79,12.4
						c-8.03,5.21-14.24,11.83-18.63,19.87c-4.4,8.04-6.61,17.13-6.63,27.24c-0.02,11.59,2.68,21.2,8.11,28.84
						C223.7,347.79,228.49,352.05,234.24,355.17z"/>
				</defs>
				<clipPath id="SVGID_10_">
					<use xlink:href="#SVGID_45_"  style="overflow:visible;"/>
				</clipPath>
				<g class="st17">
					<path class="st39" d="M234.24,355.17l-22.79-12.4c-5.75-3.13-10.54-7.39-14.37-12.77c-5.42-7.64-8.13-17.25-8.11-28.84
						c0.01-7.28,1.16-14.02,3.44-20.23l22.79,12.4c-2.28,6.21-3.42,12.95-3.44,20.23c-0.02,11.59,2.68,21.2,8.11,28.84
						C223.7,347.79,228.49,352.05,234.24,355.17"/>
					<path class="st38" d="M215.2,293.34l-22.79-12.4c0.85-2.3,1.85-4.53,3.01-6.68l22.79,12.4
						C217.05,288.81,216.05,291.03,215.2,293.34"/>
					<path class="st37" d="M218.21,286.66l-22.79-12.4c0.06-0.11,0.12-0.22,0.18-0.34c0.97-1.78,2.04-3.49,3.19-5.14l22.79,12.4
						c-1.15,1.64-2.22,3.35-3.19,5.14C218.33,286.43,218.27,286.54,218.21,286.66"/>
					<path class="st36" d="M221.58,281.18l-22.79-12.4c1.14-1.63,2.37-3.19,3.69-4.68l22.79,12.4
						C223.95,278,222.72,279.56,221.58,281.18"/>
					<path class="st42" d="M225.26,276.51l-22.79-12.4c1.37-1.55,2.83-3.03,4.39-4.43l22.79,12.4
						C228.09,273.48,226.63,274.96,225.26,276.51"/>
					<path class="st34" d="M229.65,272.08l-22.79-12.4c1.82-1.64,3.76-3.17,5.84-4.61l22.79,12.4
						C233.41,268.91,231.47,270.44,229.65,272.08"/>
					<path class="st33" d="M235.49,267.47l-22.79-12.4c0.5-0.35,1.01-0.69,1.53-1.03l22.79,12.4
						C236.5,266.79,235.99,267.13,235.49,267.47"/>
				</g>
			</g>
			<g class="st1">
				<defs>
					<path id="SVGID_47_" class="st1" d="M233.65,264.81l-22.79-12.4c-11.96-6.5-17.91-17.77-17.89-33.8
						c0.02-8.81,2.15-17.15,6.4-25.01c4.24-7.85,10.69-14.55,19.31-20.09c8.63-5.53,19.21-9.18,31.76-10.95
						c12.55-1.76,23.09-1.08,31.63,2.04c2.2,0.8,4.25,1.73,6.16,2.77l22.79,12.4c-1.91-1.04-3.97-1.96-6.16-2.77
						c-8.54-3.12-19.08-3.8-31.63-2.04c-12.55,1.76-23.13,5.41-31.76,10.95c-8.63,5.53-15.07,12.24-19.31,20.09
						c-4.25,7.86-6.38,16.2-6.4,25.01C215.74,247.04,221.7,258.31,233.65,264.81z"/>
				</defs>
				<clipPath id="SVGID_12_">
					<use xlink:href="#SVGID_47_"  style="overflow:visible;"/>
				</clipPath>
				<g class="st18">
					<path class="st39" d="M233.65,264.81l-22.79-12.4c-11.96-6.5-17.91-17.77-17.89-33.8c0.01-6.2,1.07-12.16,3.18-17.89
						l22.79,12.4c-2.11,5.73-3.16,11.69-3.18,17.89C215.74,247.04,221.7,258.31,233.65,264.81"/>
					<path class="st38" d="M218.94,213.12l-22.79-12.4c0.87-2.38,1.93-4.72,3.17-7.01l22.79,12.4
						C220.87,208.41,219.82,210.75,218.94,213.12"/>
					<path class="st37" d="M222.11,206.11l-22.79-12.4c0.02-0.03,0.04-0.07,0.06-0.1c0.89-1.65,1.88-3.25,2.97-4.8l22.79,12.4
						c-1.09,1.55-2.08,3.15-2.97,4.8C222.15,206.04,222.13,206.08,222.11,206.11"/>
					<path class="st36" d="M225.13,201.21l-22.79-12.4c1.08-1.53,2.25-3.02,3.52-4.45l22.79,12.4
						C227.38,198.19,226.21,199.67,225.13,201.21"/>
					<path class="st42" d="M228.65,196.76l-22.79-12.4c1.37-1.55,2.85-3.05,4.45-4.48l22.79,12.4
						C231.5,193.71,230.02,195.2,228.65,196.76"/>
					<path class="st34" d="M233.1,192.27l-22.79-12.4c1.95-1.75,4.06-3.41,6.33-4.99l22.79,12.4
						C237.15,188.86,235.04,190.52,233.1,192.27"/>
					<path class="st33" d="M239.43,187.29l-22.79-12.4c0.67-0.46,1.35-0.92,2.05-1.37c2.25-1.45,4.64-2.76,7.16-3.95l22.79,12.4
						c-2.52,1.19-4.91,2.51-7.16,3.95C240.78,186.37,240.1,186.82,239.43,187.29"/>
					<path class="st41" d="M248.64,181.97l-22.79-12.4c7.13-3.36,15.32-5.69,24.59-6.99c10.63-1.49,19.82-1.23,27.57,0.78
						l22.79,12.4c-7.75-2.01-16.94-2.27-27.57-0.78C263.96,176.28,255.77,178.61,248.64,181.97"/>
					<path class="st33" d="M300.81,175.75l-22.79-12.4c1.4,0.36,2.75,0.78,4.06,1.26c1.62,0.59,3.15,1.25,4.62,1.97l22.79,12.4
						c-1.46-0.72-3-1.37-4.62-1.97C303.56,176.54,302.21,176.11,300.81,175.75"/>
					<path class="st34" d="M309.48,178.98l-22.79-12.4c0.53,0.26,1.04,0.53,1.55,0.8l22.79,12.4
						C310.52,179.5,310.01,179.24,309.48,178.98"/>
				</g>
			</g>
			<g>
				<path class="st46" d="M327.71,271.2c4.37,6.81,6.55,15.2,6.53,25.15c-0.02,11.59-2.76,21.96-8.23,31.13
					c-5.45,9.17-12.84,16.61-22.14,22.32c-9.31,5.72-19.63,9.37-30.97,10.97c-11.33,1.59-21.65,0.84-30.94-2.26
					c-9.29-3.09-16.65-8.46-22.08-16.1c-5.42-7.64-8.13-17.25-8.11-28.84c0.02-10.12,2.22-19.2,6.63-27.24
					c4.4-8.04,10.61-14.66,18.63-19.87c-14.2-6.15-21.28-17.97-21.25-35.43c0.02-8.81,2.15-17.15,6.4-25.01
					c4.24-7.85,10.69-14.55,19.31-20.09c8.63-5.53,19.21-9.18,31.76-10.95c12.55-1.76,23.09-1.08,31.63,2.04
					c8.53,3.12,14.91,8.03,19.13,14.69c4.22,6.67,6.32,14.41,6.31,23.22s-1.96,16.76-5.83,23.82c-3.87,7.08-9.06,12.94-15.56,17.61
					C317.07,259.44,323.33,264.4,327.71,271.2z M290.09,317.48c4.17-4.99,6.26-10.91,6.27-17.77c0.01-7.18-2.13-12.59-6.43-16.23
					c-4.3-3.63-9.94-4.97-16.89-3.99c-7.11,1-12.85,3.89-17.24,8.66c-4.4,4.78-6.59,10.84-6.61,18.18
					c-0.01,6.86,2.13,12.18,6.43,15.99c4.3,3.8,10.08,5.19,17.34,4.17C280.21,325.47,285.93,322.47,290.09,317.48 M258.99,215.89
					c-3.56,4.25-5.35,9.72-5.36,16.42c-0.01,6.36,1.8,11.12,5.42,14.29c3.62,3.16,8.3,4.34,14.05,3.53
					c5.74-0.81,10.44-3.34,14.08-7.61c3.64-4.26,5.46-9.58,5.47-15.95c0.01-6.68-1.76-11.62-5.3-14.8
					c-3.55-3.17-8.27-4.34-14.17-3.51C267.28,209.09,262.55,211.64,258.99,215.89"/>
			</g>
		</g>
	</g>
</g>
</svg>
