<?xml version="1.0" encoding="utf-8"?>
<!-- Generator: Adobe Illustrator 23.0.3, SVG Export Plug-In . SVG Version: 6.00 Build 0)  -->
<svg version="1.1" id="Layer_1" xmlns="http://www.w3.org/2000/svg" xmlns:xlink="http://www.w3.org/1999/xlink" x="0px" y="0px"
	 viewBox="0 0 512 512" style="enable-background:new 0 0 512 512;" xml:space="preserve">
<style type="text/css">
	.st0{fill:none;stroke:#231F20;stroke-width:15;stroke-miterlimit:10;}
	.st1{enable-background:new    ;}
	.st2{fill:#825400;}
	.st3{fill:#B47500;}
	.st4{fill:#DF9000;}
	.st5{clip-path:url(#SVGID_2_);enable-background:new    ;}
	.st6{fill:#996300;}
	.st7{fill:#946000;}
	.st8{fill:#8F5C00;}
	.st9{fill:#8A5900;}
	.st10{fill:#855600;}
	.st11{clip-path:url(#SVGID_4_);enable-background:new    ;}
	.st12{clip-path:url(#SVGID_6_);enable-background:new    ;}
	.st13{fill:#A86D00;}
	.st14{fill:#A36A00;}
	.st15{fill:#9E6600;}
	.st16{clip-path:url(#SVGID_8_);enable-background:new    ;}
	.st17{clip-path:url(#SVGID_10_);enable-background:new    ;}
	.st18{clip-path:url(#SVGID_12_);enable-background:new    ;}
	.st19{clip-path:url(#SVGID_14_);enable-background:new    ;}
	.st20{clip-path:url(#SVGID_16_);enable-background:new    ;}
	.st21{clip-path:url(#SVGID_18_);enable-background:new    ;}
	.st22{clip-path:url(#SVGID_20_);enable-background:new    ;}
	.st23{clip-path:url(#SVGID_22_);enable-background:new    ;}
	.st24{clip-path:url(#SVGID_24_);enable-background:new    ;}
	.st25{clip-path:url(#SVGID_26_);enable-background:new    ;}
	.st26{clip-path:url(#SVGID_28_);enable-background:new    ;}
	.st27{clip-path:url(#SVGID_30_);enable-background:new    ;}
	.st28{clip-path:url(#SVGID_32_);enable-background:new    ;}
	.st29{clip-path:url(#SVGID_34_);enable-background:new    ;}
	.st30{clip-path:url(#SVGID_36_);enable-background:new    ;}
	.st31{fill:#905D00;}
	.st32{clip-path:url(#SVGID_38_);enable-background:new    ;}
	.st33{clip-path:url(#SVGID_40_);enable-background:new    ;}
	.st34{clip-path:url(#SVGID_42_);enable-background:new    ;}
	.st35{clip-path:url(#SVGID_44_);enable-background:new    ;}
	.st36{clip-path:url(#SVGID_46_);enable-background:new    ;}
	.st37{clip-path:url(#SVGID_48_);enable-background:new    ;}
	.st38{clip-path:url(#SVGID_50_);enable-background:new    ;}
	.st39{fill:#161314;}
	.st40{fill:#161414;}
	.st41{fill:#171415;}
	.st42{fill:#151313;}
	.st43{fill:#141213;}
	.st44{fill:#141112;}
	.st45{fill:#131111;}
	.st46{fill:#121011;}
	.st47{clip-path:url(#SVGID_52_);enable-background:new    ;}
	.st48{clip-path:url(#SVGID_54_);enable-background:new    ;}
	.st49{fill:#191617;}
	.st50{clip-path:url(#SVGID_56_);enable-background:new    ;}
	.st51{clip-path:url(#SVGID_58_);enable-background:new    ;}
	.st52{fill:#1F1B1C;}
	.st53{clip-path:url(#SVGID_60_);enable-background:new    ;}
	.st54{clip-path:url(#SVGID_62_);enable-background:new    ;}
	.st55{clip-path:url(#SVGID_64_);enable-background:new    ;}
	.st56{clip-path:url(#SVGID_66_);enable-background:new    ;}
	.st57{clip-path:url(#SVGID_68_);enable-background:new    ;}
	.st58{clip-path:url(#SVGID_70_);enable-background:new    ;}
	.st59{clip-path:url(#SVGID_72_);enable-background:new    ;}
	.st60{clip-path:url(#SVGID_74_);enable-background:new    ;}
	.st61{clip-path:url(#SVGID_76_);enable-background:new    ;}
	.st62{clip-path:url(#SVGID_78_);enable-background:new    ;}
	.st63{clip-path:url(#SVGID_80_);enable-background:new    ;}
	.st64{clip-path:url(#SVGID_82_);enable-background:new    ;}
	.st65{clip-path:url(#SVGID_84_);enable-background:new    ;}
	.st66{clip-path:url(#SVGID_86_);enable-background:new    ;}
	.st67{clip-path:url(#SVGID_88_);enable-background:new    ;}
	.st68{clip-path:url(#SVGID_90_);enable-background:new    ;}
	.st69{clip-path:url(#SVGID_92_);enable-background:new    ;}
	.st70{clip-path:url(#SVGID_94_);enable-background:new    ;}
	.st71{clip-path:url(#SVGID_96_);enable-background:new    ;}
	.st72{clip-path:url(#SVGID_98_);enable-background:new    ;}
	.st73{clip-path:url(#SVGID_100_);enable-background:new    ;}
	.st74{clip-path:url(#SVGID_102_);enable-background:new    ;}
	.st75{clip-path:url(#SVGID_104_);enable-background:new    ;}
	.st76{clip-path:url(#SVGID_106_);enable-background:new    ;}
	.st77{clip-path:url(#SVGID_108_);enable-background:new    ;}
	.st78{clip-path:url(#SVGID_110_);enable-background:new    ;}
	.st79{clip-path:url(#SVGID_112_);enable-background:new    ;}
	.st80{clip-path:url(#SVGID_114_);enable-background:new    ;}
	.st81{clip-path:url(#SVGID_116_);enable-background:new    ;}
	.st82{clip-path:url(#SVGID_118_);enable-background:new    ;}
	.st83{clip-path:url(#SVGID_120_);enable-background:new    ;}
	.st84{clip-path:url(#SVGID_122_);enable-background:new    ;}
	.st85{clip-path:url(#SVGID_124_);enable-background:new    ;}
	.st86{clip-path:url(#SVGID_126_);enable-background:new    ;}
	.st87{clip-path:url(#SVGID_128_);enable-background:new    ;}
	.st88{clip-path:url(#SVGID_130_);enable-background:new    ;}
	.st89{clip-path:url(#SVGID_132_);enable-background:new    ;}
	.st90{clip-path:url(#SVGID_134_);enable-background:new    ;}
	.st91{clip-path:url(#SVGID_136_);enable-background:new    ;}
	.st92{clip-path:url(#SVGID_138_);enable-background:new    ;}
	.st93{clip-path:url(#SVGID_140_);enable-background:new    ;}
	.st94{clip-path:url(#SVGID_142_);enable-background:new    ;}
	.st95{clip-path:url(#SVGID_144_);enable-background:new    ;}
	.st96{clip-path:url(#SVGID_146_);enable-background:new    ;}
	.st97{clip-path:url(#SVGID_148_);enable-background:new    ;}
	.st98{clip-path:url(#SVGID_150_);enable-background:new    ;}
	.st99{clip-path:url(#SVGID_152_);enable-background:new    ;}
	.st100{clip-path:url(#SVGID_154_);enable-background:new    ;}
	.st101{clip-path:url(#SVGID_156_);enable-background:new    ;}
	.st102{clip-path:url(#SVGID_158_);enable-background:new    ;}
	.st103{clip-path:url(#SVGID_160_);enable-background:new    ;}
	.st104{clip-path:url(#SVGID_162_);enable-background:new    ;}
	.st105{clip-path:url(#SVGID_164_);enable-background:new    ;}
	.st106{clip-path:url(#SVGID_166_);enable-background:new    ;}
	.st107{clip-path:url(#SVGID_168_);enable-background:new    ;}
	.st108{clip-path:url(#SVGID_170_);enable-background:new    ;}
	.st109{clip-path:url(#SVGID_172_);enable-background:new    ;}
	.st110{clip-path:url(#SVGID_174_);enable-background:new    ;}
	.st111{clip-path:url(#SVGID_176_);enable-background:new    ;}
	.st112{clip-path:url(#SVGID_178_);enable-background:new    ;}
	.st113{clip-path:url(#SVGID_180_);enable-background:new    ;}
	.st114{clip-path:url(#SVGID_182_);enable-background:new    ;}
	.st115{clip-path:url(#SVGID_184_);enable-background:new    ;}
	.st116{clip-path:url(#SVGID_186_);enable-background:new    ;}
	.st117{clip-path:url(#SVGID_188_);enable-background:new    ;}
	.st118{clip-path:url(#SVGID_190_);enable-background:new    ;}
	.st119{clip-path:url(#SVGID_192_);enable-background:new    ;}
	.st120{clip-path:url(#SVGID_194_);enable-background:new    ;}
	.st121{clip-path:url(#SVGID_196_);enable-background:new    ;}
	.st122{clip-path:url(#SVGID_198_);enable-background:new    ;}
	.st123{clip-path:url(#SVGID_200_);enable-background:new    ;}
	.st124{clip-path:url(#SVGID_202_);enable-background:new    ;}
	.st125{clip-path:url(#SVGID_204_);enable-background:new    ;}
	.st126{clip-path:url(#SVGID_206_);enable-background:new    ;}
	.st127{clip-path:url(#SVGID_208_);enable-background:new    ;}
	.st128{clip-path:url(#SVGID_210_);enable-background:new    ;}
	.st129{clip-path:url(#SVGID_212_);enable-background:new    ;}
	.st130{clip-path:url(#SVGID_214_);enable-background:new    ;}
	.st131{clip-path:url(#SVGID_216_);enable-background:new    ;}
	.st132{clip-path:url(#SVGID_218_);enable-background:new    ;}
	.st133{clip-path:url(#SVGID_220_);enable-background:new    ;}
	.st134{clip-path:url(#SVGID_222_);enable-background:new    ;}
	.st135{clip-path:url(#SVGID_224_);enable-background:new    ;}
	.st136{clip-path:url(#SVGID_226_);enable-background:new    ;}
	.st137{clip-path:url(#SVGID_228_);enable-background:new    ;}
	.st138{clip-path:url(#SVGID_230_);enable-background:new    ;}
	.st139{clip-path:url(#SVGID_232_);enable-background:new    ;}
	.st140{clip-path:url(#SVGID_234_);enable-background:new    ;}
	.st141{clip-path:url(#SVGID_236_);enable-background:new    ;}
	.st142{clip-path:url(#SVGID_238_);enable-background:new    ;}
	.st143{clip-path:url(#SVGID_240_);enable-background:new    ;}
	.st144{clip-path:url(#SVGID_242_);enable-background:new    ;}
	.st145{clip-path:url(#SVGID_244_);enable-background:new    ;}
	.st146{clip-path:url(#SVGID_246_);enable-background:new    ;}
	.st147{clip-path:url(#SVGID_248_);enable-background:new    ;}
	.st148{clip-path:url(#SVGID_250_);enable-background:new    ;}
	.st149{clip-path:url(#SVGID_252_);enable-background:new    ;}
	.st150{clip-path:url(#SVGID_254_);enable-background:new    ;}
	.st151{clip-path:url(#SVGID_256_);enable-background:new    ;}
	.st152{clip-path:url(#SVGID_258_);enable-background:new    ;}
	.st153{clip-path:url(#SVGID_260_);enable-background:new    ;}
	.st154{clip-path:url(#SVGID_262_);enable-background:new    ;}
	.st155{clip-path:url(#SVGID_264_);enable-background:new    ;}
	.st156{clip-path:url(#SVGID_266_);enable-background:new    ;}
	.st157{clip-path:url(#SVGID_268_);enable-background:new    ;}
	.st158{clip-path:url(#SVGID_270_);enable-background:new    ;}
	.st159{clip-path:url(#SVGID_272_);enable-background:new    ;}
	.st160{fill:#FFA500;}
	.st161{fill:#073344;}
	.st162{fill:#ECEEF1;}
</style>
<circle class="st0" cx="256" cy="256" r="204"/>
<g>
	<g>
		<g class="st1">
			<g class="st1">
				<defs>
					<path id="SVGID_49_" class="st1" d="M263.33,323.94l-22.79-12.4c3.2,1.74,7.21,2.28,12.01,1.6
						c8.01-1.13,13.69-5.75,17.03-13.89s5.03-20.85,5.06-38.16l22.79,12.4c-0.03,17.3-1.72,30.02-5.06,38.16
						c-3.34,8.14-9.02,12.76-17.03,13.89C270.54,326.22,266.53,325.69,263.33,323.94z"/>
				</defs>
				<clipPath id="SVGID_2_">
					<use xlink:href="#SVGID_49_"  style="overflow:visible;"/>
				</clipPath>
				<g class="st5">
					<path class="st39" d="M263.33,323.94l-22.79-12.4c0.17,0.09,0.34,0.18,0.52,0.27l22.79,12.4
						C263.67,324.12,263.5,324.04,263.33,323.94"/>
					<path class="st40" d="M263.84,324.21l-22.79-12.4c0.89,0.44,1.85,0.79,2.86,1.05l22.79,12.4
						C265.69,325,264.74,324.65,263.84,324.21"/>
					<path class="st41" d="M266.71,325.26l-22.79-12.4c2.51,0.65,5.39,0.74,8.64,0.28c2.3-0.32,4.41-0.94,6.33-1.84l22.79,12.4
						c-1.92,0.9-4.02,1.51-6.33,1.84C272.1,326,269.22,325.91,266.71,325.26"/>
					<path class="st40" d="M281.67,323.71l-22.79-12.4c0.96-0.45,1.87-0.97,2.73-1.57l22.79,12.4
						C283.54,322.73,282.63,323.26,281.67,323.71"/>
					<path class="st39" d="M284.4,322.14l-22.79-12.4c0.67-0.46,1.31-0.97,1.92-1.52l22.79,12.4
						C285.71,321.17,285.07,321.67,284.4,322.14"/>
					<path class="st42" d="M286.32,320.62l-22.79-12.4c0.57-0.51,1.11-1.06,1.62-1.64l22.79,12.4
						C287.43,319.56,286.89,320.11,286.32,320.62"/>
					<path class="st43" d="M287.95,318.97l-22.79-12.4c0.53-0.61,1.04-1.25,1.52-1.94l22.79,12.4
						C288.99,317.72,288.48,318.37,287.95,318.97"/>
					<path class="st44" d="M289.47,317.04l-22.79-12.4c0.56-0.8,1.08-1.65,1.57-2.55l22.79,12.4
						C290.55,315.39,290.03,316.24,289.47,317.04"/>
					<path class="st45" d="M291.04,314.48l-22.79-12.4c0.48-0.89,0.92-1.83,1.33-2.83c0.17-0.42,0.34-0.86,0.51-1.31l22.79,12.4
						c-0.16,0.45-0.33,0.88-0.51,1.31C291.96,312.65,291.52,313.59,291.04,314.48"/>
					<path class="st46" d="M292.88,310.35l-22.79-12.4c3-8.16,4.52-20.45,4.55-36.85l22.79,12.4
						C297.4,289.9,295.88,302.18,292.88,310.35"/>
				</g>
			</g>
			<g class="st1">
				<defs>
					<path id="SVGID_51_" class="st1" d="M262.41,201.5l22.79,12.4c1.18,0.64,2.26,1.43,3.26,2.37c3.93,3.69,5.88,9.45,5.87,17.28
						c-0.01,7.18-1.92,13.12-5.7,17.81l-22.79-12.4c3.78-4.69,5.69-10.63,5.7-17.81c0.01-7.83-1.94-13.59-5.87-17.28
						C264.67,202.93,263.58,202.14,262.41,201.5z"/>
				</defs>
				<clipPath id="SVGID_4_">
					<use xlink:href="#SVGID_51_"  style="overflow:visible;"/>
				</clipPath>
				<g class="st11">
					<path class="st43" d="M288.63,251.36l-22.79-12.4c0.34-0.42,0.66-0.85,0.97-1.29l22.79,12.4
						C289.29,250.52,288.97,250.95,288.63,251.36"/>
					<path class="st44" d="M289.6,250.08l-22.79-12.4c0.54-0.77,1.04-1.58,1.49-2.42l22.79,12.4
						C290.64,248.5,290.14,249.3,289.6,250.08"/>
					<path class="st45" d="M291.09,247.66l-22.79-12.4c0.55-1.03,1.03-2.1,1.45-3.22l22.79,12.4
						C292.12,245.56,291.64,246.63,291.09,247.66"/>
					<path class="st46" d="M292.53,244.44l-22.79-12.4c1.19-3.24,1.79-6.87,1.8-10.89c0.01-7.83-1.94-13.59-5.87-17.28
						c-1-0.94-2.09-1.73-3.26-2.37l22.79,12.4c1.18,0.64,2.26,1.43,3.26,2.37c3.93,3.69,5.88,9.45,5.87,17.28
						C294.33,237.57,293.72,241.2,292.53,244.44"/>
				</g>
			</g>
			<g class="st1">
				<defs>
					<path id="SVGID_53_" class="st1" d="M260.02,258.02l-22.79-12.4c3.52,1.91,7.99,2.49,13.4,1.73
						c6.35-0.89,11.42-3.69,15.21-8.38l22.79,12.4c-3.79,4.69-8.86,7.49-15.21,8.38C268.01,260.5,263.54,259.93,260.02,258.02z"/>
				</defs>
				<clipPath id="SVGID_6_">
					<use xlink:href="#SVGID_53_"  style="overflow:visible;"/>
				</clipPath>
				<g class="st12">
					<path class="st39" d="M260.02,258.02l-22.79-12.4c0.18,0.1,0.36,0.19,0.54,0.28l22.79,12.4
						C260.38,258.21,260.2,258.11,260.02,258.02"/>
					<path class="st40" d="M260.56,258.3l-22.79-12.4c0.96,0.47,1.99,0.85,3.08,1.13l22.79,12.4
						C262.55,259.15,261.52,258.77,260.56,258.3"/>
					<path class="st41" d="M263.64,259.43l-22.79-12.4c2.82,0.73,6.08,0.83,9.78,0.31c2.66-0.37,5.1-1.08,7.31-2.12l22.79,12.4
						c-2.21,1.04-4.64,1.75-7.31,2.12C269.72,260.26,266.46,260.16,263.64,259.43"/>
					<path class="st40" d="M280.73,257.62l-22.79-12.4c1.1-0.52,2.15-1.12,3.14-1.81l22.79,12.4
						C282.88,256.5,281.83,257.1,280.73,257.62"/>
					<path class="st39" d="M283.87,255.81l-22.79-12.4c0.77-0.53,1.5-1.11,2.21-1.74l22.79,12.4
						C285.37,254.7,284.64,255.28,283.87,255.81"/>
					<path class="st42" d="M286.07,254.07l-22.79-12.4c0.65-0.59,1.27-1.21,1.86-1.88l22.79,12.4
						C287.34,252.86,286.72,253.48,286.07,254.07"/>
					<path class="st43" d="M287.94,252.19l-22.79-12.4c0.24-0.27,0.47-0.54,0.69-0.82l22.79,12.4
						C288.4,251.65,288.17,251.92,287.94,252.19"/>
				</g>
			</g>
			<g>
				<polygon class="st49" points="218.68,314.18 195.89,301.78 231.72,296.75 254.51,309.15 				"/>
			</g>
			<g class="st1">
				<defs>
					<path id="SVGID_55_" class="st1" d="M241.91,354.97l-22.79-12.4c-6.8-3.7-12.1-8.83-15.91-15.4
						c-4.29-7.38-6.74-15.85-7.32-25.39l22.79,12.4c0.58,9.55,3.03,18.01,7.32,25.39C229.81,346.14,235.12,351.27,241.91,354.97z"/>
				</defs>
				<clipPath id="SVGID_8_">
					<use xlink:href="#SVGID_55_"  style="overflow:visible;"/>
				</clipPath>
				<g class="st16">
					<path class="st46" d="M241.91,354.97l-22.79-12.4c-6.8-3.7-12.1-8.83-15.91-15.4c-4.29-7.38-6.74-15.85-7.32-25.39l22.79,12.4
						c0.58,9.55,3.03,18.01,7.32,25.39C229.81,346.14,235.12,351.27,241.91,354.97"/>
				</g>
			</g>
			<g class="st1">
				<defs>
					<path id="SVGID_57_" class="st1" d="M235.79,289.78L213,277.38c-6.19-3.37-11.16-8.52-14.88-15.44
						c-4.29-7.96-6.43-18.06-6.41-30.3c0.02-12.07,2.34-22.92,6.97-32.55c4.63-9.62,11.22-17.48,19.77-23.57
						c8.55-6.1,18.65-9.97,30.29-11.6c14.14-1.99,25.59-0.6,34.34,4.17l22.79,12.4c-8.76-4.76-20.21-6.15-34.34-4.17
						c-11.65,1.64-21.74,5.5-30.29,11.6c-8.55,6.09-15.14,13.95-19.77,23.57c-4.63,9.62-6.95,20.48-6.97,32.55
						c-0.02,12.24,2.11,22.34,6.41,30.3C224.63,281.26,229.6,286.41,235.79,289.78z"/>
				</defs>
				<clipPath id="SVGID_10_">
					<use xlink:href="#SVGID_57_"  style="overflow:visible;"/>
				</clipPath>
				<g class="st17">
					<path class="st46" d="M235.79,289.78L213,277.38c-6.19-3.37-11.16-8.52-14.88-15.44c-4.29-7.96-6.43-18.06-6.41-30.3
						c0.02-9.68,1.51-18.59,4.5-26.7l22.79,12.4c-2.98,8.11-4.48,17.01-4.5,26.7c-0.02,12.24,2.11,22.34,6.41,30.3
						C224.63,281.26,229.6,286.41,235.79,289.78"/>
					<path class="st45" d="M219,217.34l-22.79-12.4c0.73-2,1.56-3.95,2.47-5.85c0.43-0.9,0.89-1.79,1.36-2.66l22.79,12.4
						c-0.47,0.87-0.92,1.76-1.36,2.66C220.56,213.39,219.73,215.34,219,217.34"/>
					<path class="st44" d="M222.83,208.83l-22.79-12.4c1.19-2.21,2.49-4.31,3.89-6.32l22.79,12.4
						C225.32,204.51,224.02,206.62,222.83,208.83"/>
					<path class="st43" d="M226.72,202.5l-22.79-12.4c1.29-1.85,2.68-3.61,4.16-5.28l22.79,12.4
						C229.41,198.9,228.02,200.66,226.72,202.5"/>
					<path class="st42" d="M230.89,197.22l-22.79-12.4c1.52-1.72,3.13-3.34,4.84-4.88l22.79,12.4
						C234.02,193.88,232.4,195.5,230.89,197.22"/>
					<path class="st39" d="M235.73,192.34l-22.79-12.4c1.74-1.56,3.58-3.04,5.52-4.42c0.24-0.17,0.48-0.34,0.72-0.51l22.79,12.4
						c-0.24,0.17-0.48,0.34-0.72,0.51C239.3,189.3,237.46,190.77,235.73,192.34"/>
					<path class="st40" d="M241.96,187.41l-22.79-12.4c2.77-1.92,5.7-3.61,8.8-5.07l22.79,12.4
						C247.67,183.8,244.74,185.49,241.96,187.41"/>
					<path class="st41" d="M250.76,182.34l-22.79-12.4c6.27-2.96,13.19-4.97,20.78-6.03c9.8-1.38,18.3-1.13,25.52,0.73l22.79,12.4
						c-7.21-1.87-15.72-2.11-25.52-0.73C263.95,177.38,257.03,179.39,250.76,182.34"/>
					<path class="st40" d="M297.05,177.05l-22.79-12.4c2.69,0.7,5.2,1.62,7.54,2.77l22.79,12.4
						C302.26,178.66,299.75,177.74,297.05,177.05"/>
					<path class="st39" d="M304.59,179.81l-22.79-12.4c0.44,0.21,0.87,0.44,1.29,0.67l22.79,12.4
						C305.46,180.25,305.03,180.03,304.59,179.81"/>
				</g>
			</g>
			<g>
				<path class="st52" d="M318.44,192.24c8.89,13.76,13.31,35.25,13.25,64.46c-0.04,21.21-1.85,38.97-5.42,53.26
					c-3.58,14.29-9.57,25.61-17.98,33.97c-8.4,8.36-19.86,13.56-34.38,15.6c-11.49,1.62-21.28,0.54-29.36-3.22
					c-8.08-3.76-14.26-9.34-18.56-16.73c-4.29-7.38-6.74-15.85-7.32-25.39l35.83-5.04c2.24,12.57,9.18,18.04,20.83,16.4
					c8.01-1.13,13.69-5.75,17.03-13.89c3.34-8.14,5.03-20.85,5.06-38.16c-3.33,5.53-7.88,10.08-13.63,13.66
					c-5.75,3.58-12.18,5.87-19.28,6.87c-9.68,1.36-18.29,0.41-25.85-2.85c-7.55-3.26-13.48-8.88-17.76-16.84
					c-4.29-7.96-6.43-18.06-6.41-30.3c0.02-12.07,2.34-22.92,6.97-32.55c4.63-9.62,11.22-17.48,19.77-23.57
					c8.55-6.1,18.65-9.97,30.29-11.6C293.91,173.17,309.55,178.48,318.44,192.24z M288.63,251.36c3.78-4.69,5.69-10.63,5.7-17.81
					c0.01-7.83-1.94-13.59-5.87-17.28c-3.93-3.68-9.21-5.07-15.86-4.13c-6.66,0.94-11.92,3.84-15.78,8.7
					c-3.86,4.87-5.8,11.06-5.82,18.56c-0.01,7.02,1.91,12.42,5.75,16.2c3.85,3.78,9.4,5.16,16.66,4.14
					C279.77,258.85,284.84,256.05,288.63,251.36"/>
			</g>
		</g>
	</g>
</g>
</svg>
