<?xml version="1.0" encoding="utf-8"?>
<!-- Generator: Adobe Illustrator 23.0.3, SVG Export Plug-In . SVG Version: 6.00 Build 0)  -->
<svg version="1.1" id="Layer_1" xmlns="http://www.w3.org/2000/svg" xmlns:xlink="http://www.w3.org/1999/xlink" x="0px" y="0px"
	 viewBox="0 0 512 512" style="enable-background:new 0 0 512 512;" xml:space="preserve">
<style type="text/css">
	.st0{fill:none;stroke:#231F20;stroke-width:15;stroke-miterlimit:10;}
	.st1{enable-background:new    ;}
	.st2{fill:#825400;}
	.st3{fill:#B47500;}
	.st4{fill:#DF9000;}
	.st5{clip-path:url(#SVGID_2_);enable-background:new    ;}
	.st6{fill:#996300;}
	.st7{fill:#946000;}
	.st8{fill:#8F5C00;}
	.st9{fill:#8A5900;}
	.st10{fill:#855600;}
	.st11{clip-path:url(#SVGID_4_);enable-background:new    ;}
	.st12{clip-path:url(#SVGID_6_);enable-background:new    ;}
	.st13{fill:#A86D00;}
	.st14{fill:#A36A00;}
	.st15{fill:#9E6600;}
	.st16{clip-path:url(#SVGID_8_);enable-background:new    ;}
	.st17{clip-path:url(#SVGID_10_);enable-background:new    ;}
	.st18{clip-path:url(#SVGID_12_);enable-background:new    ;}
	.st19{clip-path:url(#SVGID_14_);enable-background:new    ;}
	.st20{clip-path:url(#SVGID_16_);enable-background:new    ;}
	.st21{clip-path:url(#SVGID_18_);enable-background:new    ;}
	.st22{clip-path:url(#SVGID_20_);enable-background:new    ;}
	.st23{clip-path:url(#SVGID_22_);enable-background:new    ;}
	.st24{clip-path:url(#SVGID_24_);enable-background:new    ;}
	.st25{clip-path:url(#SVGID_26_);enable-background:new    ;}
	.st26{clip-path:url(#SVGID_28_);enable-background:new    ;}
	.st27{clip-path:url(#SVGID_30_);enable-background:new    ;}
	.st28{clip-path:url(#SVGID_32_);enable-background:new    ;}
	.st29{clip-path:url(#SVGID_34_);enable-background:new    ;}
	.st30{clip-path:url(#SVGID_36_);enable-background:new    ;}
	.st31{clip-path:url(#SVGID_38_);enable-background:new    ;}
	.st32{fill:#141213;}
	.st33{fill:#141112;}
	.st34{fill:#131111;}
	.st35{fill:#121011;}
	.st36{clip-path:url(#SVGID_40_);enable-background:new    ;}
	.st37{fill:#161314;}
	.st38{fill:#161414;}
	.st39{fill:#171415;}
	.st40{fill:#151313;}
	.st41{clip-path:url(#SVGID_42_);enable-background:new    ;}
	.st42{clip-path:url(#SVGID_44_);enable-background:new    ;}
	.st43{clip-path:url(#SVGID_46_);enable-background:new    ;}
	.st44{fill:#1F1B1C;}
	.st45{fill:#905D00;}
	.st46{clip-path:url(#SVGID_48_);enable-background:new    ;}
	.st47{clip-path:url(#SVGID_50_);enable-background:new    ;}
	.st48{clip-path:url(#SVGID_52_);enable-background:new    ;}
	.st49{clip-path:url(#SVGID_54_);enable-background:new    ;}
	.st50{clip-path:url(#SVGID_56_);enable-background:new    ;}
	.st51{clip-path:url(#SVGID_58_);enable-background:new    ;}
	.st52{clip-path:url(#SVGID_60_);enable-background:new    ;}
	.st53{clip-path:url(#SVGID_62_);enable-background:new    ;}
	.st54{clip-path:url(#SVGID_64_);enable-background:new    ;}
	.st55{clip-path:url(#SVGID_66_);enable-background:new    ;}
	.st56{clip-path:url(#SVGID_68_);enable-background:new    ;}
	.st57{clip-path:url(#SVGID_70_);enable-background:new    ;}
	.st58{clip-path:url(#SVGID_72_);enable-background:new    ;}
	.st59{clip-path:url(#SVGID_74_);enable-background:new    ;}
	.st60{clip-path:url(#SVGID_76_);enable-background:new    ;}
	.st61{clip-path:url(#SVGID_78_);enable-background:new    ;}
	.st62{clip-path:url(#SVGID_80_);enable-background:new    ;}
	.st63{clip-path:url(#SVGID_82_);enable-background:new    ;}
	.st64{clip-path:url(#SVGID_84_);enable-background:new    ;}
	.st65{clip-path:url(#SVGID_86_);enable-background:new    ;}
	.st66{clip-path:url(#SVGID_88_);enable-background:new    ;}
	.st67{clip-path:url(#SVGID_90_);enable-background:new    ;}
	.st68{clip-path:url(#SVGID_92_);enable-background:new    ;}
	.st69{clip-path:url(#SVGID_94_);enable-background:new    ;}
	.st70{clip-path:url(#SVGID_96_);enable-background:new    ;}
	.st71{clip-path:url(#SVGID_98_);enable-background:new    ;}
	.st72{clip-path:url(#SVGID_100_);enable-background:new    ;}
	.st73{clip-path:url(#SVGID_102_);enable-background:new    ;}
	.st74{clip-path:url(#SVGID_104_);enable-background:new    ;}
	.st75{clip-path:url(#SVGID_106_);enable-background:new    ;}
	.st76{clip-path:url(#SVGID_108_);enable-background:new    ;}
	.st77{clip-path:url(#SVGID_110_);enable-background:new    ;}
	.st78{clip-path:url(#SVGID_112_);enable-background:new    ;}
	.st79{clip-path:url(#SVGID_114_);enable-background:new    ;}
	.st80{clip-path:url(#SVGID_116_);enable-background:new    ;}
	.st81{clip-path:url(#SVGID_118_);enable-background:new    ;}
	.st82{clip-path:url(#SVGID_120_);enable-background:new    ;}
	.st83{clip-path:url(#SVGID_122_);enable-background:new    ;}
	.st84{clip-path:url(#SVGID_124_);enable-background:new    ;}
	.st85{clip-path:url(#SVGID_126_);enable-background:new    ;}
	.st86{clip-path:url(#SVGID_128_);enable-background:new    ;}
	.st87{clip-path:url(#SVGID_130_);enable-background:new    ;}
	.st88{clip-path:url(#SVGID_132_);enable-background:new    ;}
	.st89{clip-path:url(#SVGID_134_);enable-background:new    ;}
	.st90{clip-path:url(#SVGID_136_);enable-background:new    ;}
	.st91{clip-path:url(#SVGID_138_);enable-background:new    ;}
	.st92{clip-path:url(#SVGID_140_);enable-background:new    ;}
	.st93{clip-path:url(#SVGID_142_);enable-background:new    ;}
	.st94{clip-path:url(#SVGID_144_);enable-background:new    ;}
	.st95{clip-path:url(#SVGID_146_);enable-background:new    ;}
	.st96{clip-path:url(#SVGID_148_);enable-background:new    ;}
	.st97{clip-path:url(#SVGID_150_);enable-background:new    ;}
	.st98{clip-path:url(#SVGID_152_);enable-background:new    ;}
	.st99{clip-path:url(#SVGID_154_);enable-background:new    ;}
	.st100{clip-path:url(#SVGID_156_);enable-background:new    ;}
	.st101{clip-path:url(#SVGID_158_);enable-background:new    ;}
	.st102{clip-path:url(#SVGID_160_);enable-background:new    ;}
	.st103{clip-path:url(#SVGID_162_);enable-background:new    ;}
	.st104{clip-path:url(#SVGID_164_);enable-background:new    ;}
	.st105{clip-path:url(#SVGID_166_);enable-background:new    ;}
	.st106{clip-path:url(#SVGID_168_);enable-background:new    ;}
	.st107{clip-path:url(#SVGID_170_);enable-background:new    ;}
	.st108{clip-path:url(#SVGID_172_);enable-background:new    ;}
	.st109{clip-path:url(#SVGID_174_);enable-background:new    ;}
	.st110{clip-path:url(#SVGID_176_);enable-background:new    ;}
	.st111{clip-path:url(#SVGID_178_);enable-background:new    ;}
	.st112{clip-path:url(#SVGID_180_);enable-background:new    ;}
	.st113{clip-path:url(#SVGID_182_);enable-background:new    ;}
	.st114{clip-path:url(#SVGID_184_);enable-background:new    ;}
	.st115{clip-path:url(#SVGID_186_);enable-background:new    ;}
	.st116{clip-path:url(#SVGID_188_);enable-background:new    ;}
	.st117{clip-path:url(#SVGID_190_);enable-background:new    ;}
	.st118{clip-path:url(#SVGID_192_);enable-background:new    ;}
	.st119{clip-path:url(#SVGID_194_);enable-background:new    ;}
	.st120{clip-path:url(#SVGID_196_);enable-background:new    ;}
	.st121{clip-path:url(#SVGID_198_);enable-background:new    ;}
	.st122{clip-path:url(#SVGID_200_);enable-background:new    ;}
	.st123{clip-path:url(#SVGID_202_);enable-background:new    ;}
	.st124{clip-path:url(#SVGID_204_);enable-background:new    ;}
	.st125{clip-path:url(#SVGID_206_);enable-background:new    ;}
	.st126{clip-path:url(#SVGID_208_);enable-background:new    ;}
	.st127{clip-path:url(#SVGID_210_);enable-background:new    ;}
	.st128{clip-path:url(#SVGID_212_);enable-background:new    ;}
	.st129{clip-path:url(#SVGID_214_);enable-background:new    ;}
	.st130{clip-path:url(#SVGID_216_);enable-background:new    ;}
	.st131{clip-path:url(#SVGID_218_);enable-background:new    ;}
	.st132{clip-path:url(#SVGID_220_);enable-background:new    ;}
	.st133{clip-path:url(#SVGID_222_);enable-background:new    ;}
	.st134{clip-path:url(#SVGID_224_);enable-background:new    ;}
	.st135{clip-path:url(#SVGID_226_);enable-background:new    ;}
	.st136{clip-path:url(#SVGID_228_);enable-background:new    ;}
	.st137{clip-path:url(#SVGID_230_);enable-background:new    ;}
	.st138{clip-path:url(#SVGID_232_);enable-background:new    ;}
	.st139{clip-path:url(#SVGID_234_);enable-background:new    ;}
	.st140{clip-path:url(#SVGID_236_);enable-background:new    ;}
	.st141{clip-path:url(#SVGID_238_);enable-background:new    ;}
	.st142{clip-path:url(#SVGID_240_);enable-background:new    ;}
	.st143{clip-path:url(#SVGID_242_);enable-background:new    ;}
	.st144{clip-path:url(#SVGID_244_);enable-background:new    ;}
	.st145{clip-path:url(#SVGID_246_);enable-background:new    ;}
	.st146{clip-path:url(#SVGID_248_);enable-background:new    ;}
	.st147{clip-path:url(#SVGID_250_);enable-background:new    ;}
	.st148{clip-path:url(#SVGID_252_);enable-background:new    ;}
	.st149{clip-path:url(#SVGID_254_);enable-background:new    ;}
	.st150{clip-path:url(#SVGID_256_);enable-background:new    ;}
	.st151{clip-path:url(#SVGID_258_);enable-background:new    ;}
	.st152{clip-path:url(#SVGID_260_);enable-background:new    ;}
	.st153{clip-path:url(#SVGID_262_);enable-background:new    ;}
	.st154{clip-path:url(#SVGID_264_);enable-background:new    ;}
	.st155{clip-path:url(#SVGID_266_);enable-background:new    ;}
	.st156{clip-path:url(#SVGID_268_);enable-background:new    ;}
	.st157{clip-path:url(#SVGID_270_);enable-background:new    ;}
	.st158{clip-path:url(#SVGID_272_);enable-background:new    ;}
	.st159{clip-path:url(#SVGID_274_);enable-background:new    ;}
	.st160{clip-path:url(#SVGID_276_);enable-background:new    ;}
	.st161{clip-path:url(#SVGID_278_);enable-background:new    ;}
	.st162{clip-path:url(#SVGID_280_);enable-background:new    ;}
	.st163{clip-path:url(#SVGID_282_);enable-background:new    ;}
	.st164{fill:#FFA500;}
	.st165{fill:#073344;}
	.st166{fill:#ECEEF1;}
</style>
<circle class="st0" cx="256" cy="256" r="204"/>
<g>
	<g>
		<g class="st1">
			<g class="st1">
				<defs>
					<path id="SVGID_37_" class="st1" d="M258.24,261.43l22.79,12.4c1.28,0.69,2.43,1.57,3.46,2.63c3.77,3.88,5.65,9.65,5.64,17.32
						c-0.01,7.51-1.96,13.7-5.82,18.56l-22.79-12.4c3.86-4.86,5.8-11.05,5.82-18.56c0.01-7.67-1.86-13.44-5.64-17.32
						C260.67,263,259.52,262.13,258.24,261.43z"/>
				</defs>
				<clipPath id="SVGID_2_">
					<use xlink:href="#SVGID_37_"  style="overflow:visible;"/>
				</clipPath>
				<g class="st5">
					<path class="st32" d="M284.31,312.34l-22.79-12.4c0.3-0.38,0.6-0.78,0.88-1.18l22.79,12.4
						C284.91,311.56,284.62,311.95,284.31,312.34"/>
					<path class="st33" d="M285.19,311.16l-22.79-12.4c0.56-0.8,1.07-1.63,1.54-2.5l22.79,12.4
						C286.27,309.53,285.75,310.36,285.19,311.16"/>
					<path class="st34" d="M286.73,308.66l-22.79-12.4c0.57-1.07,1.08-2.18,1.5-3.35l22.79,12.4
						C287.81,306.48,287.31,307.6,286.73,308.66"/>
					<path class="st35" d="M288.24,305.31l-22.79-12.4c1.25-3.42,1.89-7.26,1.89-11.54c0.01-7.67-1.86-13.44-5.64-17.32
						c-1.03-1.06-2.18-1.93-3.46-2.63l22.79,12.4c1.28,0.69,2.43,1.57,3.46,2.63c3.77,3.88,5.65,9.65,5.64,17.32
						C290.12,298.05,289.49,301.89,288.24,305.31"/>
				</g>
			</g>
			<g class="st1">
				<defs>
					<path id="SVGID_39_" class="st1" d="M254.71,319.24l-22.79-12.4c3.64,1.98,8.25,2.58,13.83,1.8c6.66-0.94,11.92-3.84,15.78-8.7
						l22.79,12.4c-3.86,4.86-9.12,7.76-15.78,8.7C262.96,321.82,258.35,321.22,254.71,319.24z"/>
				</defs>
				<clipPath id="SVGID_4_">
					<use xlink:href="#SVGID_39_"  style="overflow:visible;"/>
				</clipPath>
				<g class="st11">
					<path class="st37" d="M254.71,319.24l-22.79-12.4c0.19,0.1,0.38,0.2,0.57,0.29l22.79,12.4
						C255.09,319.44,254.9,319.34,254.71,319.24"/>
					<path class="st38" d="M255.28,319.53l-22.79-12.4c1,0.49,2.06,0.88,3.2,1.18l22.79,12.4
						C257.34,320.42,256.27,320.02,255.28,319.53"/>
					<path class="st39" d="M258.48,320.71l-22.79-12.4c2.9,0.75,6.26,0.86,10.06,0.33c2.79-0.39,5.34-1.13,7.64-2.21l22.79,12.4
						c-2.3,1.08-4.84,1.82-7.64,2.21C264.74,321.57,261.38,321.46,258.48,320.71"/>
					<path class="st38" d="M276.17,318.82l-22.79-12.4c1.13-0.53,2.2-1.15,3.22-1.85l22.79,12.4
						C278.38,317.67,277.31,318.29,276.17,318.82"/>
					<path class="st37" d="M279.39,316.97l-22.79-12.4c0.78-0.54,1.52-1.13,2.23-1.77l22.79,12.4
						C280.91,315.85,280.17,316.43,279.39,316.97"/>
					<path class="st40" d="M281.62,315.21l-22.79-12.4c0.65-0.59,1.28-1.22,1.87-1.89l22.79,12.4
						C282.9,313.99,282.28,314.62,281.62,315.21"/>
					<path class="st32" d="M283.49,313.32l-22.79-12.4c0.28-0.32,0.56-0.65,0.82-0.98l22.79,12.4
						C284.05,312.67,283.77,313,283.49,313.32"/>
				</g>
			</g>
			<g class="st1">
				<defs>
					<path id="SVGID_41_" class="st1" d="M255.1,196.18l22.79,12.4c0.7,0.38,1.36,0.83,1.96,1.35c3.02,2.6,5.13,6.83,6.33,12.7
						l-22.79-12.4c-1.2-5.86-3.3-10.1-6.33-12.7C256.46,197.02,255.8,196.56,255.1,196.18z"/>
				</defs>
				<clipPath id="SVGID_6_">
					<use xlink:href="#SVGID_41_"  style="overflow:visible;"/>
				</clipPath>
				<g class="st12">
					<path class="st35" d="M286.18,222.63l-22.79-12.4c-1.2-5.86-3.3-10.1-6.33-12.7c-0.6-0.52-1.25-0.97-1.96-1.35l22.79,12.4
						c0.7,0.38,1.36,0.83,1.96,1.35C282.87,212.53,284.98,216.77,286.18,222.63"/>
				</g>
			</g>
			<g class="st1">
				<defs>
					<path id="SVGID_43_" class="st1" d="M282.17,229.38l22.79,12.4c-7.63-4.15-16.77-5.48-27.42-3.99
						c-7.56,1.06-14.48,3.67-20.76,7.82c-6.29,4.14-11.09,9.3-14.43,15.49l-22.79-12.4c3.33-6.18,8.14-11.34,14.43-15.49
						c6.28-4.15,13.19-6.76,20.76-7.82C265.39,223.89,274.53,225.22,282.17,229.38z"/>
				</defs>
				<clipPath id="SVGID_8_">
					<use xlink:href="#SVGID_43_"  style="overflow:visible;"/>
				</clipPath>
				<g class="st16">
					<path class="st33" d="M242.35,261.09l-22.79-12.4c0.76-1.41,1.6-2.78,2.52-4.08l22.79,12.4
						C243.95,258.32,243.11,259.68,242.35,261.09"/>
					<path class="st32" d="M244.87,257.01l-22.79-12.4c0.88-1.25,1.82-2.45,2.84-3.6l22.79,12.4
						C246.69,254.56,245.75,255.76,244.87,257.01"/>
					<path class="st40" d="M247.71,253.41l-22.79-12.4c1.07-1.21,2.22-2.37,3.45-3.48l22.79,12.4
						C249.93,251.04,248.78,252.19,247.71,253.41"/>
					<path class="st37" d="M251.16,249.93l-22.79-12.4c1.45-1.3,3.01-2.53,4.67-3.69l22.79,12.4
						C254.16,247.4,252.61,248.63,251.16,249.93"/>
					<path class="st38" d="M255.83,246.24l-22.79-12.4c0.31-0.22,0.63-0.43,0.95-0.64c2.02-1.34,4.12-2.52,6.27-3.53l22.79,12.4
						c-2.16,1.02-4.25,2.19-6.27,3.53C256.46,245.82,256.14,246.03,255.83,246.24"/>
					<path class="st39" d="M263.05,242.07l-22.79-12.4c4.53-2.14,9.36-3.57,14.48-4.29c7.04-0.99,13.42-0.74,19.14,0.74l22.79,12.4
						c-5.72-1.48-12.1-1.73-19.14-0.74C272.41,238.51,267.58,239.94,263.05,242.07"/>
					<path class="st38" d="M296.68,238.53l-22.79-12.4c2.45,0.63,4.78,1.49,6.98,2.58l22.79,12.4
						C301.45,240.02,299.13,239.16,296.68,238.53"/>
					<path class="st37" d="M303.66,241.1l-22.79-12.4c0.44,0.21,0.87,0.44,1.3,0.67l22.79,12.4
						C304.53,241.54,304.1,241.32,303.66,241.1"/>
				</g>
			</g>
			<g class="st1">
				<defs>
					<path id="SVGID_45_" class="st1" d="M234.73,352.04l-22.79-12.4c-5.39-2.93-9.78-7.11-13.17-12.53
						c-9.04-14.47-13.53-36.48-13.48-66.01c0.06-31,4.9-54.74,14.53-71.18c9.62-16.44,25.02-26.15,46.19-29.13
						c11.34-1.59,20.89-0.53,28.68,3.2c0.71,0.34,1.4,0.69,2.07,1.06l22.79,12.4c-0.68-0.37-1.37-0.72-2.07-1.06
						c-7.79-3.72-17.34-4.79-28.68-3.2c-21.17,2.98-36.57,12.69-46.19,29.13c-9.63,16.45-14.47,40.18-14.53,71.18
						c-0.05,29.53,4.44,51.54,13.48,66.01C224.96,344.93,229.35,349.11,234.73,352.04z"/>
				</defs>
				<clipPath id="SVGID_10_">
					<use xlink:href="#SVGID_45_"  style="overflow:visible;"/>
				</clipPath>
				<g class="st17">
					<path class="st35" d="M234.73,352.04l-22.79-12.4c-5.39-2.93-9.78-7.11-13.17-12.53c-9.04-14.47-13.53-36.48-13.48-66.01
						c0.04-23.55,2.85-42.9,8.41-58.06l22.79,12.4c-5.57,15.15-8.37,34.51-8.41,58.06c-0.05,29.53,4.44,51.54,13.48,66.01
						C224.96,344.93,229.35,349.11,234.73,352.04"/>
					<path class="st34" d="M216.51,215.44l-22.79-12.4c1.43-3.9,3.04-7.51,4.84-10.85l22.79,12.4
						C219.55,207.93,217.94,211.54,216.51,215.44"/>
					<path class="st33" d="M221.35,204.59l-22.79-12.4c0.42-0.77,0.84-1.53,1.28-2.27c0.87-1.49,1.79-2.93,2.76-4.31l22.79,12.4
						c-0.97,1.38-1.89,2.82-2.76,4.31C222.19,203.06,221.76,203.81,221.35,204.59"/>
					<path class="st32" d="M225.38,198.01l-22.79-12.4c1.26-1.8,2.6-3.5,4.03-5.11l22.79,12.4
						C227.99,194.5,226.65,196.21,225.38,198.01"/>
					<path class="st40" d="M229.41,192.89l-22.79-12.4c1.41-1.6,2.91-3.11,4.48-4.52l22.79,12.4
						C232.32,189.78,230.82,191.29,229.41,192.89"/>
					<path class="st37" d="M233.89,188.37l-22.79-12.4c1.74-1.57,3.58-3.02,5.52-4.36l22.79,12.4
						C237.47,185.35,235.63,186.8,233.89,188.37"/>
					<path class="st38" d="M239.4,184.01l-22.79-12.4c2.59-1.79,5.36-3.38,8.31-4.77l22.79,12.4
						C244.77,180.63,242,182.22,239.4,184.01"/>
					<path class="st39" d="M247.71,179.24l-22.79-12.4c6.25-2.94,13.28-4.96,21.1-6.06c8.24-1.16,15.54-0.91,21.89,0.74l22.79,12.4
						c-6.36-1.65-13.65-1.9-21.89-0.74C260.99,174.28,253.96,176.3,247.71,179.24"/>
					<path class="st38" d="M290.71,173.92l-22.79-12.4c2.39,0.62,4.66,1.44,6.79,2.46c0.15,0.07,0.31,0.15,0.46,0.22l22.79,12.4
						c-0.15-0.08-0.31-0.15-0.46-0.22C295.36,175.36,293.1,174.54,290.71,173.92"/>
					<path class="st37" d="M297.96,176.6l-22.79-12.4c0.55,0.27,1.08,0.55,1.61,0.83l22.79,12.4
						C299.04,177.15,298.5,176.87,297.96,176.6"/>
				</g>
			</g>
			<g>
				<path class="st44" d="M313.23,247.95c8.97,8.85,13.44,22.34,13.41,40.45c-0.02,11.91-2.28,22.67-6.75,32.27
					c-4.48,9.6-11,17.54-19.54,23.79c-8.55,6.26-18.65,10.2-30.29,11.84c-23.29,3.27-39.44-2.32-48.49-16.8
					c-9.04-14.47-13.53-36.48-13.48-66.01c0.06-31,4.9-54.74,14.53-71.18c9.62-16.44,25.02-26.15,46.19-29.13
					c11.34-1.59,20.89-0.53,28.68,3.2c7.78,3.72,13.66,9.21,17.65,16.48c3.99,7.27,6.35,15.5,7.1,24.7l-36.06,5.07
					c-1.2-5.86-3.3-10.1-6.33-12.7c-3.01-2.59-7.32-3.5-12.91-2.71c-8.62,1.21-14.83,6.13-18.62,14.74s-5.79,21.65-5.97,39.14
					c3.33-6.18,8.14-11.34,14.43-15.49c6.28-4.15,13.19-6.76,20.76-7.82C292.35,235.7,304.25,239.1,313.23,247.95z M284.31,312.34
					c3.86-4.86,5.8-11.05,5.82-18.56c0.01-7.67-1.87-13.44-5.64-17.32c-3.77-3.88-9.21-5.31-16.31-4.31
					c-6.5,0.91-11.92,3.75-16.23,8.52c-4.32,4.76-6.48,10.98-6.5,18.65c-0.01,7.83,1.98,13.67,5.98,17.52
					c3.99,3.84,9.7,5.24,17.11,4.2C275.19,320.1,280.45,317.2,284.31,312.34"/>
			</g>
		</g>
	</g>
</g>
</svg>
